<svg width="24.212769" height="25.006058" viewBox="0 0 24.2128 25.0061" fill="none" xmlns="http://www.w3.org/2000/svg" xmlns:xlink="http://www.w3.org/1999/xlink">
	<desc>
			Created with Pixso.
	</desc>
	<defs/>
	<path d="M8.24 11.61C8.13 11.73 8.04 11.87 7.98 12.02C7.91 12.17 7.88 12.34 7.88 12.5C7.88 12.67 7.91 12.83 7.98 12.98C8.04 13.13 8.13 13.27 8.24 13.39C8.47 13.62 8.78 13.75 9.1 13.75C9.42 13.75 9.72 13.62 9.95 13.39C10.07 13.27 10.16 13.13 10.22 12.98C10.28 12.83 10.31 12.67 10.31 12.5C10.31 12.34 10.28 12.17 10.22 12.02C10.16 11.87 10.07 11.73 9.95 11.61C9.72 11.38 9.42 11.25 9.1 11.25C8.78 11.25 8.47 11.38 8.24 11.61ZM11.24 14.71C11.01 14.95 10.88 15.26 10.88 15.59C10.88 15.93 11.01 16.24 11.24 16.48C11.35 16.59 11.48 16.69 11.63 16.75C11.78 16.81 11.94 16.85 12.1 16.85C12.26 16.85 12.42 16.81 12.56 16.75C12.71 16.69 12.85 16.59 12.96 16.48C13.19 16.24 13.31 15.93 13.31 15.59C13.31 15.26 13.19 14.95 12.96 14.71C12.85 14.6 12.71 14.5 12.56 14.44C12.42 14.38 12.26 14.34 12.1 14.34C11.94 14.34 11.78 14.38 11.63 14.44C11.48 14.5 11.35 14.6 11.24 14.71ZM22.15 2.21C20.83 0.84 19.05 0.05 17.18 0C15.31 -0.05 13.49 0.64 12.1 1.94C10.72 0.66 8.91 -0.03 7.05 0.02C5.2 0.06 3.42 0.84 2.11 2.19C0.79 3.55 0.04 5.38 0 7.3C-0.05 9.22 0.63 11.08 1.87 12.5C0.94 13.58 0.33 14.91 0.11 16.33C-0.11 17.76 0.08 19.22 0.65 20.54C1.21 21.86 2.14 22.98 3.31 23.77C4.48 24.56 5.85 24.99 7.25 25C9.04 25 10.77 24.31 12.1 23.06C13.48 24.35 15.29 25.04 17.15 24.99C19.01 24.95 20.78 24.17 22.1 22.81C23.41 21.45 24.17 19.62 24.21 17.7C24.25 15.78 23.57 13.92 22.32 12.5C23.57 11.08 24.25 9.22 24.21 7.3C24.17 5.38 23.41 3.55 22.1 2.19L22.15 2.21ZM20.38 3.96C21.23 4.86 21.71 6.04 21.75 7.29C21.79 8.54 21.37 9.75 20.59 10.7L13.84 3.75C14.77 2.96 15.95 2.54 17.15 2.58C18.36 2.62 19.51 3.11 20.38 3.96ZM3.82 21.04C2.97 20.14 2.48 18.96 2.45 17.71C2.41 16.46 2.82 15.25 3.61 14.3L10.4 21.3C9.46 22.1 8.27 22.51 7.06 22.46C5.84 22.42 4.69 21.91 3.82 21.04ZM20.38 21.04C19.46 21.95 18.24 22.45 16.96 22.45C15.69 22.45 14.46 21.95 13.54 21.04L3.84 11.04C2.94 10.1 2.43 8.83 2.43 7.51C2.43 6.19 2.94 4.93 3.84 3.99C4.75 3.06 5.98 2.53 7.26 2.53C8.54 2.53 9.77 3.06 10.68 3.99L20.38 13.99C21.29 14.93 21.79 16.19 21.79 17.51C21.79 18.83 21.29 20.1 20.38 21.04ZM14.25 11.61C14.13 11.73 14.04 11.87 13.98 12.02C13.92 12.17 13.89 12.34 13.89 12.5C13.89 12.67 13.92 12.83 13.98 12.98C14.04 13.13 14.13 13.27 14.25 13.39C14.47 13.62 14.78 13.75 15.1 13.75C15.42 13.75 15.73 13.62 15.96 13.39C16.07 13.27 16.16 13.13 16.22 12.98C16.28 12.83 16.31 12.67 16.31 12.5C16.31 12.34 16.28 12.17 16.22 12.02C16.16 11.87 16.07 11.73 15.96 11.61C15.73 11.38 15.42 11.25 15.1 11.25C14.78 11.25 14.47 11.38 14.25 11.61ZM11.24 8.53C11.01 8.76 10.88 9.08 10.88 9.41C10.88 9.74 11.01 10.05 11.24 10.29C11.35 10.41 11.48 10.5 11.63 10.56C11.78 10.63 11.94 10.66 12.1 10.66C12.26 10.66 12.42 10.63 12.56 10.56C12.71 10.5 12.85 10.41 12.96 10.29C13.19 10.05 13.31 9.74 13.31 9.41C13.31 9.08 13.19 8.76 12.96 8.53C12.85 8.41 12.71 8.32 12.56 8.25C12.42 8.19 12.26 8.16 12.1 8.16C11.94 8.16 11.78 8.19 11.63 8.25C11.48 8.32 11.35 8.41 11.24 8.53Z" fill="#6563FF" fill-opacity="1.000000" fill-rule="nonzero"/>
</svg>
