<svg width="24.255310" height="22.500000" viewBox="0 0 24.2553 22.5" fill="none" xmlns="http://www.w3.org/2000/svg" xmlns:xlink="http://www.w3.org/1999/xlink">
	<desc>
			Created with Pixso.
	</desc>
	<defs/>
	<path d="M21.8298 0L2.42554 0C1.78223 0 1.16528 0.26339 0.710449 0.732231C0.255554 1.20107 0 1.83696 0 2.5L0 5C0.00256348 5.43629 0.115845 5.86428 0.328613 6.24146C0.541382 6.61864 0.846191 6.93186 1.21277 7.15L1.21277 20C1.21277 20.663 1.46832 21.2989 1.92322 21.7678C2.37805 22.2366 2.995 22.5 3.63831 22.5L20.617 22.5C21.2603 22.5 21.8773 22.2366 22.3322 21.7678C22.787 21.2989 23.0425 20.663 23.0425 20L23.0425 7.15C23.4091 6.93186 23.714 6.61864 23.9267 6.24146C24.1395 5.86428 24.2527 5.43629 24.2553 5L24.2553 2.5C24.2553 1.83696 23.9998 1.20107 23.5449 0.732231C23.09 0.26339 22.4731 0 21.8298 0ZM2.42554 2.5L21.8298 2.5L21.8298 5L2.42554 5L2.42554 2.5ZM3.63831 20L3.63831 7.5L20.617 7.5L20.617 20L3.63831 20ZM16.9787 10L7.27661 10L7.27661 12.5L16.9787 12.5L16.9787 10Z" clip-rule="evenodd" fill="#6563FF" fill-opacity="1.000000" fill-rule="evenodd"/>
</svg>
