<svg width="30.000000" height="30.000000" viewBox="0 0 30 30" fill="none" xmlns="http://www.w3.org/2000/svg" xmlns:xlink="http://www.w3.org/1999/xlink">
	<desc>
			Created with Pixso.
	</desc>
	<defs/>
	<path d="M29.4 13.68L22.5 7.52L22.5 3.32C22.53 2.48 22.27 1.66 21.76 1.04C21.25 0.41 20.54 0.04 19.78 0L2.68 0C1.93 0.05 1.23 0.42 0.73 1.05C0.22 1.67 -0.04 2.49 0 3.32L0 19.97C-0.02 20.63 0.15 21.28 0.47 21.84C0.79 22.4 1.25 22.83 1.8 23.1C1.52 23.85 1.41 24.66 1.48 25.47C1.55 26.27 1.8 27.05 2.2 27.73C2.6 28.4 3.14 28.96 3.78 29.36C4.42 29.75 5.14 29.96 5.87 29.98C6.6 30 7.32 29.82 7.97 29.46C8.63 29.09 9.19 28.56 9.62 27.9C10.04 27.25 10.32 26.48 10.42 25.68C10.52 24.88 10.44 24.06 10.2 23.3L19.74 23.3C19.49 24.05 19.41 24.86 19.51 25.66C19.6 26.45 19.87 27.21 20.28 27.87C20.7 28.52 21.25 29.06 21.89 29.43C22.53 29.8 23.24 30 23.97 30C24.69 30 25.4 29.8 26.04 29.43C26.68 29.06 27.24 28.52 27.65 27.87C28.07 27.21 28.33 26.45 28.43 25.66C28.52 24.86 28.44 24.05 28.2 23.3L28.5 23.3C28.89 23.3 29.27 23.12 29.56 22.81C29.84 22.5 30 22.07 30 21.63L30 14.98C29.99 14.72 29.93 14.47 29.83 14.25C29.73 14.02 29.58 13.83 29.4 13.68ZM27 15.77L27 19.97L22.5 19.97L22.5 11.78L27 15.77ZM7.5 24.96C7.5 25.29 7.41 25.61 7.24 25.89C7.08 26.16 6.85 26.37 6.57 26.5C6.3 26.63 6 26.66 5.71 26.59C5.41 26.53 5.15 26.37 4.94 26.14C4.73 25.91 4.58 25.61 4.53 25.29C4.47 24.96 4.5 24.63 4.61 24.33C4.73 24.02 4.92 23.76 5.16 23.58C5.41 23.4 5.7 23.3 6 23.3C6.4 23.3 6.78 23.47 7.06 23.79C7.34 24.1 7.5 24.52 7.5 24.96ZM15 19.97L3 19.97L3 3.32L19.5 3.32L19.5 19.97L15 19.97ZM25.5 24.96C25.5 25.29 25.41 25.61 25.24 25.89C25.08 26.16 24.84 26.37 24.57 26.5C24.3 26.63 23.99 26.66 23.7 26.59C23.41 26.53 23.14 26.37 22.94 26.14C22.73 25.91 22.58 25.61 22.52 25.29C22.47 24.96 22.5 24.63 22.61 24.33C22.72 24.02 22.92 23.76 23.16 23.58C23.41 23.4 23.7 23.3 24 23.3C24.39 23.3 24.77 23.47 25.06 23.79C25.34 24.1 25.5 24.52 25.5 24.96Z" fill="#6563FF" fill-opacity="1.000000" fill-rule="nonzero"/>
</svg>
