<svg width="30.000000" height="30.000008" viewBox="0 0 30 30" fill="none" xmlns="http://www.w3.org/2000/svg" xmlns:xlink="http://www.w3.org/1999/xlink">
	<desc>
			Created with Pixso.
	</desc>
	<defs/>
	<path d="M10.83 25.26C10.33 25.26 9.85 25.4 9.44 25.66C9.03 25.92 8.71 26.29 8.52 26.72C8.33 27.15 8.28 27.63 8.38 28.09C8.47 28.55 8.71 28.97 9.06 29.3C9.41 29.63 9.86 29.86 10.34 29.95C10.83 30.04 11.33 29.99 11.79 29.81C12.24 29.64 12.63 29.33 12.91 28.94C13.18 28.55 13.33 28.1 13.33 27.63C13.33 27 13.06 26.4 12.6 25.95C12.13 25.51 11.49 25.26 10.83 25.26ZM28.33 20.52L8.33 20.52C7.89 20.52 7.46 20.36 7.15 20.06C6.84 19.76 6.66 19.36 6.66 18.94C6.66 18.52 6.84 18.12 7.15 17.83C7.46 17.53 7.89 17.36 8.33 17.36L22.48 17.36C23.57 17.36 24.62 17.02 25.49 16.4C26.36 15.78 26.99 14.92 27.29 13.93L29.93 5.16C30 4.93 30.01 4.68 29.97 4.44C29.92 4.2 29.81 3.98 29.66 3.78C29.5 3.59 29.3 3.43 29.07 3.32C28.84 3.21 28.59 3.15 28.33 3.15L7.9 3.15C7.55 2.23 6.91 1.44 6.07 0.87C5.23 0.3 4.23 0 3.2 0L1.66 0C1.22 0 0.8 0.16 0.48 0.46C0.17 0.75 0 1.16 0 1.57C0 1.99 0.17 2.39 0.48 2.69C0.8 2.99 1.22 3.15 1.66 3.15L3.2 3.15C3.56 3.15 3.91 3.27 4.2 3.47C4.49 3.68 4.7 3.97 4.8 4.3L5.06 5.16L5.06 5.17L7.79 14.23C6.52 14.36 5.35 14.95 4.52 15.87C3.69 16.79 3.26 17.99 3.33 19.2C3.4 20.41 3.96 21.55 4.89 22.38C5.82 23.22 7.05 23.68 8.33 23.68L28.33 23.68C28.77 23.68 29.19 23.51 29.51 23.22C29.82 22.92 30 22.52 30 22.1C30 21.68 29.82 21.28 29.51 20.98C29.19 20.69 28.77 20.52 28.33 20.52ZM26.12 6.31L24.09 13.06C23.98 13.39 23.77 13.68 23.48 13.89C23.19 14.09 22.84 14.2 22.48 14.21L11.25 14.21L10.83 12.8L8.87 6.31L26.12 6.31ZM24.16 25.26C23.67 25.26 23.18 25.4 22.77 25.66C22.36 25.92 22.04 26.29 21.85 26.72C21.66 27.15 21.61 27.63 21.71 28.09C21.81 28.55 22.04 28.97 22.39 29.3C22.74 29.63 23.19 29.86 23.67 29.95C24.16 30.04 24.66 29.99 25.12 29.81C25.58 29.64 25.97 29.33 26.24 28.94C26.52 28.55 26.66 28.1 26.66 27.63C26.66 27 26.4 26.4 25.93 25.95C25.46 25.51 24.82 25.26 24.16 25.26Z" fill="#6563FF" fill-opacity="1.000000" fill-rule="nonzero"/>
</svg>
