<svg width="29.106323" height="29.999954" viewBox="0 0 29.1063 30" fill="none" xmlns="http://www.w3.org/2000/svg" xmlns:xlink="http://www.w3.org/1999/xlink">
	<desc>
			Created with Pixso.
	</desc>
	<defs/>
	<path d="M18.3262 12.8571L28.0283 12.8571C28.3142 12.8571 28.5884 12.7443 28.7906 12.5433C28.9928 12.3424 29.1063 12.0699 29.1063 11.7857C29.1063 8.65995 27.8571 5.66221 25.6332 3.45196C23.4093 1.24171 20.3932 0 17.2482 0C16.9623 0 16.6881 0.112885 16.486 0.313812C16.2837 0.514748 16.1702 0.78727 16.1702 1.07143L16.1702 10.7143C16.1702 11.2826 16.3973 11.8277 16.8016 12.2295C17.2059 12.6314 17.7544 12.8571 18.3262 12.8571ZM26.8856 10.7143L18.3262 10.7143L18.3262 2.20715C20.5118 2.45096 22.5493 3.42561 24.1045 4.9713C25.6597 6.51699 26.6403 8.54199 26.8856 10.7143ZM11.8582 30C8.71313 30 5.69702 28.7583 3.47314 26.548C1.24939 24.3378 0 21.34 0 18.2142C0 15.0885 1.24939 12.0907 3.47314 9.88049C5.69702 7.67023 8.71313 6.42853 11.8582 6.42853C12.144 6.42853 12.4182 6.54141 12.6205 6.74234C12.8226 6.94328 12.9362 7.2158 12.9362 7.49995L12.9362 17.1428L22.6383 17.1428C22.9242 17.1428 23.1984 17.2557 23.4005 17.4566C23.6028 17.6576 23.7163 17.9301 23.7163 18.2142C23.7163 21.34 22.4669 24.3378 20.2432 26.548C18.0193 28.7583 15.0032 30 11.8582 30ZM10.7802 8.63567C8.96387 8.83651 7.2417 9.54308 5.81177 10.674C4.38184 11.8049 3.30225 13.3143 2.69751 15.0282C2.09277 16.7421 1.9873 18.591 2.39331 20.3618C2.79932 22.1327 3.70032 23.7536 4.99255 25.0379C6.28467 26.3222 7.91553 27.2177 9.69739 27.6212C11.4791 28.0248 13.3394 27.92 15.0637 27.3189C16.7882 26.7178 18.3069 25.6449 19.4447 24.2237C20.5826 22.8025 21.2936 21.0908 21.4956 19.2857L12.9362 19.2857C12.3644 19.2857 11.8159 19.0599 11.4116 18.658C11.0073 18.2562 10.7802 17.7111 10.7802 17.1428L10.7802 8.63567Z" clip-rule="evenodd" fill="#6563FF" fill-opacity="1.000000" fill-rule="evenodd"/>
</svg>
