<svg width="110.966919" height="30.868713" viewBox="0 0 110.967 30.8687" fill="none" xmlns="http://www.w3.org/2000/svg" xmlns:xlink="http://www.w3.org/1999/xlink">
	<desc>
			Created with Pixso.
	</desc>
	<defs/>
	<path d="M57.79 7.79L54.46 7.79L52.58 10.49L55.91 10.49L57.79 7.79ZM66.43 14.9C64.69 15.03 61.61 16.41 59.93 19.44C58.25 22.46 58.24 24.33 58.24 24.33C58.24 24.33 59.13 23.47 60.49 22.57C61.84 21.67 62.85 21.35 62.85 21.35C62.85 21.35 63.11 20.23 63.73 19.07C64.34 17.94 65.31 16.77 66.51 16.5C68.93 15.96 67.77 19.89 65.99 22.45C65.03 23.82 61.63 27.78 58.71 27.78C55.78 27.78 55.22 25.28 55.83 22.94C56.45 20.6 57.3 17.63 61.57 12.23C65.84 6.83 70.46 3.63 73.13 2.29C75.88 0.91 77 1.51 77 1.51C77 1.51 73.49 3.43 71.5 5.73C69.59 7.93 68.45 10.41 69.34 11.63C70.18 12.78 73.15 12.81 76.42 8.62C79.65 4.48 78.84 2.02 78.84 2.02C78.84 2.02 79.23 1.91 79.49 1.88C81.06 1.69 82.32 2.06 84.28 2.95C86.32 3.88 88.29 5.37 90.98 6.59C91.79 5.81 92.69 4.97 93.63 4.16C90.01 2.59 87.26 0.36 83.7 0.15C80.6 -0.04 78.16 0.96 78.16 0.96C78.16 0.96 77.22 -0.18 74.31 0.19C71.39 0.56 62.42 3.89 54.79 14.74C47.88 24.54 51.13 30.16 56.1 30.1C61.48 30.03 66.59 24.72 68.32 20.35C70.06 15.97 68.01 14.78 66.43 14.9ZM76.99 5.79C76.09 7.74 74.76 9.11 73.45 10.15C71.77 11.49 70.85 11.44 70.45 11.18C69.41 10.47 70.8 7.82 73.23 5.44C75.65 3.08 77.73 2.34 77.73 2.34C77.73 2.37 78.08 3.44 76.99 5.79ZM106.95 2.94C104.49 4.34 101.07 5.61 97.8 5.33C96.97 6.1 96.08 6.98 95.19 7.94C100.88 8.93 105.85 5.81 108.5 3.15C110.15 1.49 110.96 0.01 110.96 0.01C110.96 0.01 109.39 1.55 106.95 2.94Z" fill="#F40009" fill-opacity="1.000000" fill-rule="nonzero"/>
	<path d="M57.79 7.79L54.46 7.79L52.58 10.49L55.91 10.49L57.79 7.79ZM66.43 14.9C64.69 15.03 61.61 16.41 59.93 19.44C58.25 22.46 58.24 24.33 58.24 24.33C58.24 24.33 59.13 23.47 60.49 22.57C61.84 21.67 62.85 21.35 62.85 21.35C62.85 21.35 63.11 20.23 63.73 19.07C64.34 17.94 65.31 16.77 66.51 16.5C68.93 15.96 67.77 19.89 65.99 22.45C65.03 23.82 61.63 27.78 58.71 27.78C55.78 27.78 55.22 25.28 55.83 22.94C56.45 20.6 57.3 17.63 61.57 12.23C65.84 6.83 70.46 3.63 73.13 2.29C75.88 0.91 77 1.51 77 1.51C77 1.51 73.49 3.43 71.5 5.73C69.59 7.93 68.45 10.41 69.34 11.63C70.18 12.78 73.15 12.81 76.42 8.62C79.65 4.48 78.84 2.02 78.84 2.02C78.84 2.02 79.23 1.91 79.49 1.88C81.06 1.69 82.32 2.06 84.28 2.95C86.32 3.88 88.29 5.37 90.98 6.59C91.79 5.81 92.69 4.97 93.63 4.16C90.01 2.59 87.26 0.36 83.7 0.15C80.6 -0.04 78.16 0.96 78.16 0.96C78.16 0.96 77.22 -0.18 74.31 0.19C71.39 0.56 62.42 3.89 54.79 14.74C47.88 24.54 51.13 30.16 56.1 30.1C61.48 30.03 66.59 24.72 68.32 20.35C70.06 15.97 68.01 14.78 66.43 14.9ZM76.99 5.79C76.09 7.74 74.76 9.11 73.45 10.15C71.77 11.49 70.85 11.44 70.45 11.18C69.41 10.47 70.8 7.82 73.23 5.44C75.65 3.08 77.73 2.34 77.73 2.34C77.73 2.37 78.08 3.44 76.99 5.79ZM106.95 2.94C104.49 4.34 101.07 5.61 97.8 5.33C96.97 6.1 96.08 6.98 95.19 7.94C100.88 8.93 105.85 5.81 108.5 3.15C110.15 1.49 110.96 0.01 110.96 0.01C110.96 0.01 109.39 1.55 106.95 2.94Z" fill="#434343" fill-opacity="1.000000" fill-rule="nonzero"/>
	<path d="M104.26 15.26L100.76 15.26L100.19 16.04C100.19 16.04 99.47 14.9 98.26 14.92C96.19 14.95 94.11 16.35 91.7 18.79C89.94 20.57 87.01 24.54 87.01 24.54C87.01 24.54 84.76 27.61 83.62 27.37C81.68 26.96 85.25 20.6 85.25 20.6C85.25 20.6 87.12 19.57 89.55 17.76C91.08 16.62 92.84 15.05 94.46 13.6C95.93 12.27 97.66 10.48 99.31 8.51C98.89 8.57 98.45 8.61 98.01 8.63C96.54 10.35 94.96 11.9 93.62 13.13C91.62 14.96 89.78 16.46 88.45 17.41C87.17 18.33 86.35 18.74 86.35 18.74C86.35 18.74 88.79 14.3 92.86 9.38C96.92 4.47 102.62 -0.09 102.17 2.08C102.04 2.7 101.61 3.59 100.95 4.65C101.41 4.56 101.86 4.46 102.3 4.33C103.28 2.54 103.61 1.06 102.88 0.63C99.89 -1.11 92.3 6.1 88.5 10.29C84.7 14.48 81.25 20.88 81.25 20.88C81.25 20.88 80.66 21.1 80 21.21C79.58 21.28 79.41 21.27 79.34 21.25C79.3 21.23 79.3 21.21 79.3 21.21C79.3 21.21 82.65 15.66 79.22 14.93C75.91 14.22 70.18 19.64 68.15 23.42C66.75 26.01 65.96 29.27 68.36 30.04C70.95 30.88 75.36 26.68 76.4 25.46C77.44 24.24 78.73 22.2 78.73 22.2C78.73 22.2 79.36 22.17 79.71 22.13C80.37 22.04 80.68 21.97 80.68 21.97C80.68 21.97 80.25 22.97 79.79 24.23C78.92 26.59 78.14 29.96 81.26 30.12C83.24 30.22 86.16 27.04 86.16 27.04C86.16 27.04 85.37 29.87 87.95 30.12C89.85 30.31 92.62 27.7 92.62 27.7C92.62 27.7 92.02 29.94 93.95 30.14C95.6 30.31 97.94 28.6 99.86 26.71C101.96 24.64 103.57 22.39 103.57 22.39L102.35 22.39C102.35 22.39 99.65 26.02 97.75 26.99C96.2 27.79 96.73 26.51 97.2 25.84C97.72 25.1 104.26 15.26 104.26 15.26L104.26 15.26ZM77.57 22.11C77.52 22.2 76.65 23.56 75.71 24.62C74.7 25.77 72.85 27.49 71.74 27.13C70 26.56 71.91 23.2 73.16 21.57C74.41 19.94 74.55 19.83 74.59 19.79C74.62 19.74 74.66 19.71 74.69 19.76C74.72 19.81 75.12 20.48 75.9 21.06C76.69 21.64 77.45 21.95 77.51 21.97C77.57 21.99 77.62 22.01 77.57 22.11L77.57 22.11ZM78.35 20.9C78.24 21.06 78.16 21.07 77.94 21.01C77.53 20.92 75.87 20.23 75.88 18.72C75.9 17.25 78.24 15.81 79.16 16.42C80.01 17 79.6 18.47 79.28 19.22C78.96 19.97 78.42 20.79 78.35 20.9ZM94.27 24.54C93.8 25.1 93.42 25.61 93.07 25.97C92.32 26.73 91.83 27.09 91.4 27.18C91.18 27.23 90.91 27.22 90.73 27.12C90.1 26.78 90.54 25.44 91.65 23.64C92.66 22 93.83 20.35 95.76 18.46C97.69 16.56 98.43 16.47 98.97 16.49C99.43 16.51 99.49 16.93 99.49 16.93C99.49 16.93 99.46 17.03 99.39 17.14C98.75 18.12 95.54 23 94.26 24.54L94.27 24.54ZM42.6 26.92C40.47 25.76 37.75 25.01 34.62 24.98C26.55 24.92 17.77 28.4 11.82 28.44C4.81 28.5 4.46 23.71 4.98 21.08C6.1 15.42 10.63 10.02 13.54 7.17C16.45 4.32 19.5 2.11 22.04 1.55C24.58 0.98 24.34 2.69 24.03 2.93C23.71 2.93 23.09 2.99 22.74 3.21C22.2 3.54 21.47 4.15 21.42 5.13C21.34 6.62 23.52 6.88 25.1 3.75C26.17 1.62 24.47 0.17 23.05 0.03C21.11 -0.16 18.15 0.44 14.61 2.45C8.45 5.96 0.21 13.76 0 22.41C-0.12 27.34 3.51 30.12 8.5 30.12C13.49 30.12 20.26 27.41 26.87 27.34C30.96 27.31 33.61 28.58 34.95 30.66C34.95 30.66 36.28 28.69 39.25 28.58C42.19 28.48 45.42 29.21 48.08 30.86C47.19 29.73 44.69 28.07 42.6 26.92L42.6 26.92Z" fill="#F40009" fill-opacity="1.000000" fill-rule="nonzero"/>
	<path d="M104.26 15.26L100.76 15.26L100.19 16.04C100.19 16.04 99.47 14.9 98.26 14.92C96.19 14.95 94.11 16.35 91.7 18.79C89.94 20.57 87.01 24.54 87.01 24.54C87.01 24.54 84.76 27.61 83.62 27.37C81.68 26.96 85.25 20.6 85.25 20.6C85.25 20.6 87.12 19.57 89.55 17.76C91.08 16.62 92.84 15.05 94.46 13.6C95.93 12.27 97.66 10.48 99.31 8.51C98.89 8.57 98.45 8.61 98.01 8.63C96.54 10.35 94.96 11.9 93.62 13.13C91.62 14.96 89.78 16.46 88.45 17.41C87.17 18.33 86.35 18.74 86.35 18.74C86.35 18.74 88.79 14.3 92.86 9.38C96.92 4.47 102.62 -0.09 102.17 2.08C102.04 2.7 101.61 3.59 100.95 4.65C101.41 4.56 101.86 4.46 102.3 4.33C103.28 2.54 103.61 1.06 102.88 0.63C99.89 -1.11 92.3 6.1 88.5 10.29C84.7 14.48 81.25 20.88 81.25 20.88C81.25 20.88 80.66 21.1 80 21.21C79.58 21.28 79.41 21.27 79.34 21.25C79.3 21.23 79.3 21.21 79.3 21.21C79.3 21.21 82.65 15.66 79.22 14.93C75.91 14.22 70.18 19.64 68.15 23.42C66.75 26.01 65.96 29.27 68.36 30.04C70.95 30.88 75.36 26.68 76.4 25.46C77.44 24.24 78.73 22.2 78.73 22.2C78.73 22.2 79.36 22.17 79.71 22.13C80.37 22.04 80.68 21.97 80.68 21.97C80.68 21.97 80.25 22.97 79.79 24.23C78.92 26.59 78.14 29.96 81.26 30.12C83.24 30.22 86.16 27.04 86.16 27.04C86.16 27.04 85.37 29.87 87.95 30.12C89.85 30.31 92.62 27.7 92.62 27.7C92.62 27.7 92.02 29.94 93.95 30.14C95.6 30.31 97.94 28.6 99.86 26.71C101.96 24.64 103.57 22.39 103.57 22.39L102.35 22.39C102.35 22.39 99.65 26.02 97.75 26.99C96.2 27.79 96.73 26.51 97.2 25.84C97.72 25.1 104.26 15.26 104.26 15.26L104.26 15.26ZM77.57 22.11C77.52 22.2 76.65 23.56 75.71 24.62C74.7 25.77 72.85 27.49 71.74 27.13C70 26.56 71.91 23.2 73.16 21.57C74.41 19.94 74.55 19.83 74.59 19.79C74.62 19.74 74.66 19.71 74.69 19.76C74.72 19.81 75.12 20.48 75.9 21.06C76.69 21.64 77.45 21.95 77.51 21.97C77.57 21.99 77.62 22.01 77.57 22.11L77.57 22.11ZM78.35 20.9C78.24 21.06 78.16 21.07 77.94 21.01C77.53 20.92 75.87 20.23 75.88 18.72C75.9 17.25 78.24 15.81 79.16 16.42C80.01 17 79.6 18.47 79.28 19.22C78.96 19.97 78.42 20.79 78.35 20.9ZM94.27 24.54C93.8 25.1 93.42 25.61 93.07 25.97C92.32 26.73 91.83 27.09 91.4 27.18C91.18 27.23 90.91 27.22 90.73 27.12C90.1 26.78 90.54 25.44 91.65 23.64C92.66 22 93.83 20.35 95.76 18.46C97.69 16.56 98.43 16.47 98.97 16.49C99.43 16.51 99.49 16.93 99.49 16.93C99.49 16.93 99.46 17.03 99.39 17.14C98.75 18.12 95.54 23 94.26 24.54L94.27 24.54ZM42.6 26.92C40.47 25.76 37.75 25.01 34.62 24.98C26.55 24.92 17.77 28.4 11.82 28.44C4.81 28.5 4.46 23.71 4.98 21.08C6.1 15.42 10.63 10.02 13.54 7.17C16.45 4.32 19.5 2.11 22.04 1.55C24.58 0.98 24.34 2.69 24.03 2.93C23.71 2.93 23.09 2.99 22.74 3.21C22.2 3.54 21.47 4.15 21.42 5.13C21.34 6.62 23.52 6.88 25.1 3.75C26.17 1.62 24.47 0.17 23.05 0.03C21.11 -0.16 18.15 0.44 14.61 2.45C8.45 5.96 0.21 13.76 0 22.41C-0.12 27.34 3.51 30.12 8.5 30.12C13.49 30.12 20.26 27.41 26.87 27.34C30.96 27.31 33.61 28.58 34.95 30.66C34.95 30.66 36.28 28.69 39.25 28.58C42.19 28.48 45.42 29.21 48.08 30.86C47.19 29.73 44.69 28.07 42.6 26.92L42.6 26.92Z" fill="#434343" fill-opacity="1.000000" fill-rule="nonzero"/>
	<path d="M24.23 7.49C20.85 6.72 15.23 11.83 12.87 15.98C11.41 18.54 10.77 21.76 13.37 22.6C15.96 23.44 20.37 19.24 21.41 18.02C22.45 16.8 24.14 14.35 24.14 14.35C24.14 14.35 24.66 14.26 25 14.19C25.34 14.12 25.9 13.98 25.9 13.98C25.9 13.98 25.26 14.99 24.68 16.03C24 17.25 22.14 21.34 25.73 22.57C29.15 23.74 34.03 18.86 34.29 18.76C34.29 18.76 32.84 22.09 35.09 22.6C37.57 23.16 40.28 20.35 40.28 20.35C40.28 20.35 39.71 22.46 41.64 22.66C45.09 23.02 51.2 15.18 51.2 15.18L49.98 15.18C49.98 15.18 46.87 18.73 45.38 19.46C43.88 20.19 44.42 18.89 44.83 18.31C45.35 17.57 51.95 7.78 51.95 7.78L48.45 7.78L48.04 8.35C48.04 8.35 47.32 7.37 46.11 7.44C42.6 7.64 38.43 12.61 36.59 14.79C34.75 16.98 30.79 21.16 28.7 20.41C26.43 19.6 28.69 15.88 30.19 13.69C31.81 11.31 34.7 8.95 35.84 8.93C37.24 8.91 36.69 10.04 36.69 10.04C36.69 10.04 35.64 9.92 34.88 10.77C34.34 11.37 33.9 12.25 34.41 12.72C35.24 13.49 36.31 12.71 36.96 11.84C38.96 9.12 37.49 7.68 35.92 7.48C32.57 7.03 29.48 10.85 27.13 12.27C25.5 13.25 24.82 13.18 24.82 13.18C24.82 13.18 27.65 8.26 24.23 7.49L24.23 7.49ZM39.41 16.28C40.42 14.64 41.8 13.05 43.6 11.06C45.4 9.07 46.29 8.91 46.83 8.93C47.29 8.95 47.35 9.38 47.35 9.38C47.35 9.38 43.45 15.41 42.03 17.13C41.57 17.7 41.17 18.17 40.82 18.53C40.08 19.29 39.54 19.66 39.12 19.75C38.9 19.8 38.63 19.79 38.45 19.69C37.81 19.35 38.3 18.08 39.41 16.28L39.41 16.28ZM22.83 14.33C22.79 14.42 21.67 16.06 20.73 17.12C19.72 18.27 17.86 20 16.74 19.64C15.01 19.07 16.86 15.73 18.11 14.1C19.36 12.47 19.55 12.26 19.58 12.22C19.62 12.18 19.65 12.14 19.68 12.19C19.71 12.24 20.11 12.96 20.97 13.45C21.83 13.94 22.72 14.17 22.78 14.19C22.84 14.21 22.88 14.23 22.84 14.33L22.83 14.33ZM24.29 11.78C23.97 12.53 23.68 13 23.62 13.12C23.52 13.29 23.28 13.24 23.28 13.24C23.01 13.23 20.88 12.8 20.89 11.28C20.9 9.81 23.25 8.37 24.16 8.98C25.02 9.56 24.61 11.03 24.29 11.78ZM101.62 28.33C101.42 28.22 101.19 28.17 100.94 28.17C100.69 28.17 100.46 28.22 100.26 28.33C100.05 28.43 99.89 28.57 99.78 28.75C99.66 28.92 99.6 29.12 99.6 29.32C99.6 29.53 99.66 29.73 99.78 29.9C99.89 30.08 100.05 30.22 100.26 30.32C100.46 30.42 100.69 30.47 100.94 30.47C101.19 30.47 101.42 30.42 101.62 30.32C101.83 30.22 101.99 30.08 102.11 29.9C102.22 29.73 102.28 29.53 102.28 29.32C102.28 29.11 102.22 28.92 102.11 28.75C101.99 28.57 101.83 28.43 101.62 28.33ZM101.86 29.8C101.77 29.94 101.65 30.05 101.49 30.13C101.33 30.21 101.15 30.25 100.94 30.25C100.74 30.25 100.55 30.21 100.39 30.13C100.23 30.05 100.11 29.94 100.02 29.8C99.93 29.66 99.88 29.5 99.88 29.32C99.88 29.15 99.93 28.99 100.02 28.85C100.11 28.71 100.23 28.6 100.39 28.52C100.56 28.44 100.74 28.4 100.94 28.4C101.14 28.4 101.33 28.44 101.49 28.52C101.65 28.6 101.77 28.71 101.86 28.85C101.95 28.99 102 29.15 102 29.32C102 29.5 101.95 29.66 101.86 29.8Z" fill="#F40009" fill-opacity="1.000000" fill-rule="nonzero"/>
	<path d="M24.23 7.49C20.85 6.72 15.23 11.83 12.87 15.98C11.41 18.54 10.77 21.76 13.37 22.6C15.96 23.44 20.37 19.24 21.41 18.02C22.45 16.8 24.14 14.35 24.14 14.35C24.14 14.35 24.66 14.26 25 14.19C25.34 14.12 25.9 13.98 25.9 13.98C25.9 13.98 25.26 14.99 24.68 16.03C24 17.25 22.14 21.34 25.73 22.57C29.15 23.74 34.03 18.86 34.29 18.76C34.29 18.76 32.84 22.09 35.09 22.6C37.57 23.16 40.28 20.35 40.28 20.35C40.28 20.35 39.71 22.46 41.64 22.66C45.09 23.02 51.2 15.18 51.2 15.18L49.98 15.18C49.98 15.18 46.87 18.73 45.38 19.46C43.88 20.19 44.42 18.89 44.83 18.31C45.35 17.57 51.95 7.78 51.95 7.78L48.45 7.78L48.04 8.35C48.04 8.35 47.32 7.37 46.11 7.44C42.6 7.64 38.43 12.61 36.59 14.79C34.75 16.98 30.79 21.16 28.7 20.41C26.43 19.6 28.69 15.88 30.19 13.69C31.81 11.31 34.7 8.95 35.84 8.93C37.24 8.91 36.69 10.04 36.69 10.04C36.69 10.04 35.64 9.92 34.88 10.77C34.34 11.37 33.9 12.25 34.41 12.72C35.24 13.49 36.31 12.71 36.96 11.84C38.96 9.12 37.49 7.68 35.92 7.48C32.57 7.03 29.48 10.85 27.13 12.27C25.5 13.25 24.82 13.18 24.82 13.18C24.82 13.18 27.65 8.26 24.23 7.49L24.23 7.49ZM39.41 16.28C40.42 14.64 41.8 13.05 43.6 11.06C45.4 9.07 46.29 8.91 46.83 8.93C47.29 8.95 47.35 9.38 47.35 9.38C47.35 9.38 43.45 15.41 42.03 17.13C41.57 17.7 41.17 18.17 40.82 18.53C40.08 19.29 39.54 19.66 39.12 19.75C38.9 19.8 38.63 19.79 38.45 19.69C37.81 19.35 38.3 18.08 39.41 16.28L39.41 16.28ZM22.83 14.33C22.79 14.42 21.67 16.06 20.73 17.12C19.72 18.27 17.86 20 16.74 19.64C15.01 19.07 16.86 15.73 18.11 14.1C19.36 12.47 19.55 12.26 19.58 12.22C19.62 12.18 19.65 12.14 19.68 12.19C19.71 12.24 20.11 12.96 20.97 13.45C21.83 13.94 22.72 14.17 22.78 14.19C22.84 14.21 22.88 14.23 22.84 14.33L22.83 14.33ZM24.29 11.78C23.97 12.53 23.68 13 23.62 13.12C23.52 13.29 23.28 13.24 23.28 13.24C23.01 13.23 20.88 12.8 20.89 11.28C20.9 9.81 23.25 8.37 24.16 8.98C25.02 9.56 24.61 11.03 24.29 11.78ZM101.62 28.33C101.42 28.22 101.19 28.17 100.94 28.17C100.69 28.17 100.46 28.22 100.26 28.33C100.05 28.43 99.89 28.57 99.78 28.75C99.66 28.92 99.6 29.12 99.6 29.32C99.6 29.53 99.66 29.73 99.78 29.9C99.89 30.08 100.05 30.22 100.26 30.32C100.46 30.42 100.69 30.47 100.94 30.47C101.19 30.47 101.42 30.42 101.62 30.32C101.83 30.22 101.99 30.08 102.11 29.9C102.22 29.73 102.28 29.53 102.28 29.32C102.28 29.11 102.22 28.92 102.11 28.75C101.99 28.57 101.83 28.43 101.62 28.33ZM101.86 29.8C101.77 29.94 101.65 30.05 101.49 30.13C101.33 30.21 101.15 30.25 100.94 30.25C100.74 30.25 100.55 30.21 100.39 30.13C100.23 30.05 100.11 29.94 100.02 29.8C99.93 29.66 99.88 29.5 99.88 29.32C99.88 29.15 99.93 28.99 100.02 28.85C100.11 28.71 100.23 28.6 100.39 28.52C100.56 28.44 100.74 28.4 100.94 28.4C101.14 28.4 101.33 28.44 101.49 28.52C101.65 28.6 101.77 28.71 101.86 28.85C101.95 28.99 102 29.15 102 29.32C102 29.5 101.95 29.66 101.86 29.8Z" fill="#434343" fill-opacity="1.000000" fill-rule="nonzero"/>
	<path d="M101.44 29.3C101.48 29.25 101.5 29.19 101.5 29.12C101.5 29.03 101.47 28.95 101.4 28.89C101.33 28.82 101.24 28.79 101.13 28.79L100.45 28.79L100.45 29.83L100.75 29.83L100.75 29.45L100.97 29.45L101.25 29.83L101.59 29.83L101.28 29.43C101.35 29.4 101.41 29.36 101.44 29.3ZM101.16 29.19C101.14 29.21 101.11 29.22 101.07 29.22L100.75 29.22L100.75 29.02L101.07 29.02C101.11 29.02 101.14 29.03 101.16 29.05C101.18 29.06 101.19 29.09 101.19 29.12C101.19 29.15 101.18 29.18 101.16 29.19L101.16 29.19Z" fill="#F40009" fill-opacity="1.000000" fill-rule="nonzero"/>
	<path d="M101.44 29.3C101.48 29.25 101.5 29.19 101.5 29.12C101.5 29.03 101.47 28.95 101.4 28.89C101.33 28.82 101.24 28.79 101.13 28.79L100.45 28.79L100.45 29.83L100.75 29.83L100.75 29.45L100.97 29.45L101.25 29.83L101.59 29.83L101.28 29.43C101.35 29.4 101.41 29.36 101.44 29.3ZM101.16 29.19C101.14 29.21 101.11 29.22 101.07 29.22L100.75 29.22L100.75 29.02L101.07 29.02C101.11 29.02 101.14 29.03 101.16 29.05C101.18 29.06 101.19 29.09 101.19 29.12C101.19 29.15 101.18 29.18 101.16 29.19L101.16 29.19Z" fill="#434343" fill-opacity="1.000000" fill-rule="nonzero"/>
</svg>
