<svg width="60.000000" height="18.818604" viewBox="0 0 60 18.8186" fill="none" xmlns="http://www.w3.org/2000/svg" xmlns:xlink="http://www.w3.org/1999/xlink">
	<desc>
			Created with Pixso.
	</desc>
	<defs/>
	<path id="Vector" d="M31.25 4.75L29.45 4.75L28.43 6.39L30.23 6.39L31.25 4.75ZM35.92 9.08C34.98 9.16 33.31 10 32.4 11.85C31.49 13.69 31.49 14.83 31.49 14.83C31.49 14.83 31.97 14.31 32.7 13.76C33.44 13.21 33.98 13.01 33.98 13.01C33.98 13.01 34.12 12.33 34.46 11.63C34.79 10.94 35.31 10.22 35.96 10.06C37.27 9.73 36.64 12.12 35.68 13.68C35.16 14.52 33.32 16.93 31.74 16.93C30.16 16.93 29.85 15.41 30.19 13.98C30.52 12.56 30.98 10.75 33.29 7.45C35.6 4.16 38.1 2.21 39.54 1.39C41.03 0.55 41.63 0.92 41.63 0.92C41.63 0.92 39.74 2.09 38.66 3.49C37.63 4.83 37.01 6.35 37.49 7.09C37.94 7.79 39.55 7.8 41.32 5.25C43.07 2.73 42.62 1.23 42.62 1.23C42.62 1.23 42.84 1.16 42.98 1.14C43.83 1.03 44.51 1.25 45.57 1.8C46.67 2.36 47.73 3.27 49.19 4.02C49.63 3.54 50.11 3.03 50.63 2.53C48.67 1.58 47.18 0.22 45.25 0.09C43.58 -0.03 42.26 0.58 42.26 0.58C42.26 0.58 41.75 -0.11 40.18 0.11C38.6 0.34 33.75 2.37 29.62 8.98C25.89 14.96 27.65 18.38 30.33 18.35C33.24 18.3 36 15.07 36.94 12.4C37.88 9.73 36.77 9.01 35.92 9.08ZM41.63 3.53C41.14 4.72 40.42 5.55 39.71 6.19C38.8 7 38.31 6.98 38.09 6.81C37.53 6.38 38.28 4.76 39.59 3.32C40.9 1.88 42.03 1.43 42.03 1.43C42.03 1.44 42.21 2.1 41.63 3.53ZM57.82 1.79C56.49 2.65 54.65 3.42 52.88 3.25C52.43 3.71 51.95 4.25 51.47 4.84C54.54 5.44 57.23 3.54 58.66 1.92C59.55 0.9 60 0 60 0C60 0 59.14 0.94 57.82 1.79Z" fill="#F40009" fill-opacity="1.000000" fill-rule="nonzero"/>
	<path id="Vector" d="M56.37 9.3L54.48 9.3L54.17 9.78C54.17 9.78 53.78 9.08 53.13 9.09C52.01 9.11 50.89 9.97 49.58 11.45C48.63 12.54 47.04 14.96 47.04 14.96C47.04 14.96 45.83 16.83 45.21 16.69C44.16 16.44 46.09 12.56 46.09 12.56C46.09 12.56 47.1 11.93 48.42 10.83C49.25 10.13 50.2 9.17 51.07 8.29C51.87 7.48 52.8 6.38 53.69 5.18C53.47 5.22 53.23 5.25 52.99 5.26C52.2 6.31 51.34 7.25 50.62 8C49.54 9.12 48.54 10.03 47.82 10.61C47.13 11.17 46.69 11.42 46.69 11.42C46.69 11.42 48.01 8.71 50.21 5.72C52.4 2.73 55.48 -0.06 55.24 1.26C55.17 1.64 54.94 2.19 54.58 2.83C54.83 2.78 55.08 2.71 55.31 2.64C55.84 1.55 56.02 0.64 55.62 0.38C54.01 -0.68 49.91 3.72 47.85 6.27C45.79 8.83 43.93 12.73 43.93 12.73C43.93 12.73 43.61 12.86 43.25 12.93C43.03 12.97 42.93 12.96 42.9 12.95C42.88 12.94 42.88 12.93 42.88 12.93C42.88 12.93 44.69 9.55 42.83 9.1C41.04 8.67 37.95 11.97 36.85 14.27C36.09 15.85 35.66 17.84 36.96 18.31C38.36 18.83 40.75 16.26 41.31 15.52C41.87 14.77 42.57 13.53 42.57 13.53C42.57 13.53 42.91 13.52 43.1 13.49C43.46 13.44 43.62 13.39 43.62 13.39C43.62 13.39 43.39 14 43.14 14.77C42.67 16.21 42.25 18.26 43.93 18.36C45.01 18.42 46.58 16.48 46.58 16.48C46.58 16.48 46.16 18.21 47.55 18.36C48.58 18.47 50.08 16.88 50.08 16.88C50.08 16.88 49.75 18.25 50.79 18.37C51.69 18.48 52.95 17.43 53.99 16.28C55.13 15.02 56 13.65 56 13.65L55.34 13.65C55.34 13.65 53.88 15.86 52.85 16.45C52.01 16.94 52.3 16.16 52.56 15.75C52.84 15.3 56.37 9.3 56.37 9.3L56.37 9.3ZM41.94 13.48C41.91 13.53 41.44 14.36 40.93 15.01C40.39 15.71 39.39 16.76 38.79 16.54C37.84 16.19 38.88 14.14 39.56 13.15C40.23 12.15 40.31 12.09 40.33 12.06C40.35 12.04 40.37 12.01 40.38 12.04C40.4 12.07 40.61 12.48 41.04 12.84C41.47 13.19 41.88 13.38 41.91 13.39C41.94 13.4 41.97 13.42 41.94 13.48L41.94 13.48ZM42.36 12.74C42.3 12.84 42.26 12.84 42.14 12.81C41.92 12.75 41.02 12.33 41.03 11.41C41.03 10.51 42.3 9.63 42.8 10.01C43.26 10.36 43.04 11.26 42.87 11.71C42.69 12.17 42.4 12.67 42.36 12.74ZM50.97 14.96C50.72 15.3 50.51 15.61 50.32 15.83C49.92 16.3 49.65 16.51 49.42 16.57C49.3 16.6 49.15 16.59 49.06 16.53C48.71 16.32 48.95 15.51 49.55 14.41C50.1 13.41 50.73 12.41 51.78 11.25C52.82 10.09 53.22 10.04 53.51 10.05C53.76 10.06 53.79 10.32 53.79 10.32C53.79 10.32 53.78 10.38 53.74 10.45C53.39 11.05 51.65 14.02 50.97 14.96L50.97 14.96ZM23.03 16.41C21.88 15.7 20.41 15.24 18.71 15.23C14.35 15.19 9.61 17.31 6.39 17.34C2.6 17.37 2.41 14.45 2.69 12.85C3.29 9.4 5.74 6.11 7.32 4.37C8.89 2.63 10.54 1.29 11.91 0.94C13.29 0.6 13.16 1.64 12.99 1.78C12.82 1.79 12.48 1.82 12.29 1.95C12 2.16 11.6 2.53 11.58 3.12C11.54 4.03 12.72 4.19 13.57 2.29C14.15 0.98 13.23 0.1 12.46 0.02C11.41 -0.1 9.81 0.26 7.9 1.49C4.57 3.63 0.11 8.39 0 13.66C-0.07 16.67 1.9 18.36 4.59 18.36C7.29 18.36 10.95 16.71 14.52 16.67C16.74 16.65 18.17 17.42 18.9 18.69C18.9 18.69 19.62 17.49 21.22 17.42C22.81 17.36 24.56 17.8 25.99 18.81C25.51 18.12 24.16 17.11 23.03 16.41L23.03 16.41Z" fill="#F40009" fill-opacity="1.000000" fill-rule="nonzero"/>
	<path id="Vector" d="M13.1 4.56C11.27 4.1 8.23 7.21 6.96 9.74C6.17 11.3 5.82 13.27 7.23 13.78C8.63 14.29 11.01 11.73 11.57 10.98C12.13 10.24 13.05 8.75 13.05 8.75C13.05 8.75 13.33 8.69 13.52 8.65C13.7 8.61 14 8.52 14 8.52C14 8.52 13.65 9.14 13.34 9.77C12.97 10.52 11.97 13.01 13.91 13.76C15.76 14.47 18.4 11.49 18.54 11.44C18.54 11.44 17.75 13.47 18.97 13.78C20.31 14.12 21.78 12.4 21.78 12.4C21.78 12.4 21.47 13.69 22.51 13.81C24.38 14.03 27.68 9.25 27.68 9.25L27.02 9.25C27.02 9.25 25.34 11.42 24.53 11.86C23.73 12.31 24.02 11.52 24.24 11.16C24.52 10.71 28.09 4.74 28.09 4.74L26.19 4.74L25.97 5.09C25.97 5.09 25.58 4.49 24.93 4.53C23.03 4.66 20.77 7.68 19.78 9.02C18.79 10.35 16.65 12.9 15.52 12.44C14.29 11.95 15.51 9.68 16.32 8.34C17.2 6.89 18.76 5.45 19.38 5.44C20.14 5.43 19.84 6.12 19.84 6.12C19.84 6.12 19.27 6.05 18.86 6.56C18.57 6.93 18.33 7.46 18.6 7.75C19.05 8.22 19.63 7.75 19.98 7.22C21.06 5.56 20.27 4.68 19.42 4.56C17.61 4.28 15.94 6.61 14.67 7.48C13.79 8.08 13.42 8.03 13.42 8.03C13.42 8.03 14.95 5.03 13.1 4.56L13.1 4.56ZM21.31 9.93C21.85 8.92 22.6 7.96 23.57 6.74C24.54 5.53 25.03 5.43 25.32 5.44C25.57 5.46 25.6 5.71 25.6 5.71C25.6 5.71 23.49 9.39 22.72 10.44C22.47 10.79 22.26 11.08 22.07 11.29C21.67 11.76 21.38 11.99 21.15 12.04C21.03 12.07 20.89 12.06 20.79 12C20.44 11.79 20.71 11.02 21.31 9.93L21.31 9.93ZM12.34 8.73C12.32 8.79 11.72 9.79 11.21 10.44C10.66 11.14 9.65 12.19 9.05 11.97C8.11 11.62 9.11 9.59 9.79 8.59C10.47 7.6 10.57 7.47 10.59 7.45C10.6 7.42 10.62 7.4 10.64 7.43C10.66 7.46 10.87 7.9 11.34 8.2C11.8 8.5 12.28 8.63 12.31 8.65C12.35 8.66 12.37 8.67 12.34 8.73L12.34 8.73ZM13.13 7.18C12.96 7.64 12.8 7.93 12.77 7.99C12.72 8.1 12.59 8.07 12.59 8.07C12.44 8.06 11.29 7.8 11.29 6.88C11.3 5.98 12.57 5.1 13.06 5.47C13.53 5.83 13.31 6.72 13.13 7.18ZM54.95 17.27C54.83 17.2 54.71 17.17 54.58 17.17C54.44 17.17 54.32 17.2 54.21 17.27C54.1 17.33 54.01 17.41 53.95 17.52C53.88 17.63 53.85 17.75 53.85 17.87C53.85 18 53.88 18.12 53.95 18.23C54.01 18.34 54.1 18.42 54.21 18.48C54.32 18.54 54.44 18.58 54.58 18.58C54.71 18.58 54.83 18.54 54.95 18.48C55.06 18.42 55.14 18.34 55.21 18.23C55.27 18.12 55.3 18 55.3 17.87C55.3 17.75 55.27 17.63 55.21 17.52C55.14 17.41 55.06 17.33 54.95 17.27ZM55.08 18.17C55.03 18.25 54.96 18.32 54.87 18.37C54.79 18.42 54.69 18.44 54.58 18.44C54.47 18.44 54.37 18.42 54.28 18.37C54.19 18.32 54.13 18.25 54.08 18.17C54.03 18.08 54.01 17.98 54.01 17.87C54.01 17.77 54.03 17.67 54.08 17.59C54.13 17.5 54.19 17.43 54.28 17.38C54.37 17.34 54.47 17.31 54.58 17.31C54.69 17.31 54.78 17.34 54.87 17.38C54.96 17.43 55.03 17.5 55.08 17.59C55.12 17.67 55.15 17.77 55.15 17.87C55.15 17.98 55.12 18.08 55.08 18.17Z" fill="#F40009" fill-opacity="1.000000" fill-rule="nonzero"/>
	<path id="Vector" d="M54.85 17.86C54.87 17.83 54.88 17.79 54.88 17.75C54.88 17.69 54.86 17.65 54.82 17.61C54.79 17.57 54.74 17.55 54.68 17.55L54.31 17.55L54.31 18.19L54.47 18.19L54.47 17.95L54.59 17.95L54.74 18.19L54.93 18.19L54.76 17.94C54.8 17.92 54.83 17.9 54.85 17.86ZM54.69 17.8C54.68 17.81 54.67 17.81 54.65 17.81L54.47 17.81L54.47 17.69L54.65 17.69C54.67 17.69 54.68 17.7 54.69 17.71C54.71 17.72 54.71 17.73 54.71 17.75C54.71 17.77 54.71 17.78 54.69 17.8L54.69 17.8Z" fill="#F40009" fill-opacity="1.000000" fill-rule="nonzero"/>
</svg>
