<svg width="108.181183" height="28.590088" viewBox="0 0 108.181 28.5901" fill="none" xmlns="http://www.w3.org/2000/svg" xmlns:xlink="http://www.w3.org/1999/xlink">
	<desc>
			Created with Pixso.
	</desc>
	<defs/>
	<path id="Cooljob" d="M66.32 3.99C66.78 4.45 67.33 4.68 67.97 4.68C68.63 4.68 69.18 4.45 69.62 3.99C70.08 3.53 70.31 2.98 70.31 2.34C70.31 1.68 70.08 1.13 69.62 0.69C69.18 0.23 68.63 9.72e-5 67.97 9.72e-5C67.33 9.72e-5 66.78 0.23 66.32 0.69C65.86 1.13 65.63 1.68 65.63 2.34C65.63 2.98 65.86 3.53 66.32 3.99ZM58.6 1.17L58.6 22.17L62.71 22.17L62.71 0.48L58.6 1.17ZM91.74 1.17L91.74 22.17L95.79 22.17L95.79 21.09Q95.95 21.2 96.12 21.3Q96.91 21.77 97.83 22.05C98.57 22.27 99.33 22.38 100.11 22.38C101.61 22.38 102.97 22.03 104.19 21.33Q105.19 20.73 105.97 19.92Q106.61 19.25 107.1 18.45C107.82 17.23 108.18 15.87 108.18 14.37C108.18 12.87 107.82 11.52 107.1 10.32C106.4 9.1 105.45 8.13 104.25 7.41C103.05 6.69 101.71 6.33 100.23 6.33C98.55 6.33 97.09 6.82 95.85 7.8L95.85 0.48L91.74 1.17ZM6.78 21.66C8.14 22.2 9.6 22.47 11.16 22.47Q12.36 22.47 13.52 22.23Q13.98 22.14 14.43 22.02C15.51 21.7 16.51 21.25 17.43 20.67C18.35 20.09 19.14 19.4 19.79 18.6L16.95 15.78Q15.98 16.9 14.77 17.56Q14.58 17.67 14.4 17.76Q13.91 17.99 13.41 18.14Q12.4 18.45 11.31 18.45C10.33 18.45 9.42 18.28 8.58 17.94C7.76 17.6 7.04 17.13 6.42 16.53C5.8 15.91 5.32 15.19 4.98 14.37C4.64 13.53 4.47 12.63 4.47 11.67C4.47 10.69 4.64 9.79 4.98 8.97Q5.44 7.83 6.22 6.98Q6.3 6.89 6.39 6.81C6.99 6.19 7.7 5.71 8.52 5.37Q8.78 5.25 9.06 5.16Q10.05 4.83 11.16 4.83Q12.37 4.83 13.47 5.19Q13.91 5.34 14.34 5.55Q14.44 5.6 14.55 5.65Q15.92 6.37 16.98 7.68L19.92 4.77C19.26 3.95 18.45 3.25 17.52 2.67C16.6 2.09 15.6 1.64 14.52 1.32C13.44 1 12.32 0.84 11.16 0.84Q9.09 0.84 7.26 1.49Q7.02 1.58 6.78 1.68Q5.48 2.2 4.38 3Q3.78 3.43 3.24 3.96C2.22 4.94 1.42 6.09 0.84 7.41Q0.83 7.41 0.83 7.42Q1.34e-5 9.37 1.34e-5 11.67Q1.33e-5 13.63 0.62 15.36Q0.72 15.65 0.84 15.93C1.42 17.23 2.21 18.37 3.21 19.35Q3.54 19.67 3.91 19.97Q5.19 21 6.78 21.66ZM25.02 21.39C26.28 22.11 27.69 22.47 29.25 22.47C30.83 22.47 32.25 22.11 33.51 21.39C34.77 20.67 35.76 19.7 36.48 18.48C37.22 17.26 37.59 15.89 37.59 14.37C37.59 12.85 37.22 11.48 36.48 10.26Q36.03 9.49 35.44 8.85Q34.6 7.95 33.48 7.32Q33.04 7.07 32.58 6.87Q31.05 6.24 29.25 6.24C27.69 6.24 26.27 6.6 24.99 7.32Q24.01 7.88 23.24 8.65Q22.52 9.36 21.99 10.26C21.27 11.48 20.91 12.85 20.91 14.37Q20.91 16 21.48 17.4Q21.7 17.95 22.02 18.48Q22.5 19.27 23.13 19.92Q23.95 20.77 25.02 21.39ZM43.51 21.39C44.77 22.11 46.18 22.47 47.74 22.47C49.32 22.47 50.74 22.11 52 21.39C53.26 20.67 54.25 19.7 54.97 18.48C55.71 17.26 56.08 15.89 56.08 14.37C56.08 12.85 55.71 11.48 54.97 10.26Q54.52 9.49 53.93 8.85Q53.09 7.95 51.97 7.32Q51.53 7.07 51.07 6.87Q49.54 6.24 47.74 6.24C46.18 6.24 44.76 6.6 43.48 7.32Q42.49 7.88 41.72 8.65Q41.01 9.36 40.48 10.26C39.76 11.48 39.4 12.85 39.4 14.37Q39.4 16 39.96 17.4Q40.19 17.95 40.51 18.48C41.25 19.7 42.25 20.67 43.51 21.39ZM76.64 21.39C77.9 22.11 79.31 22.47 80.87 22.47C82.45 22.47 83.87 22.11 85.13 21.39C86.39 20.67 87.38 19.7 88.1 18.48C88.84 17.26 89.21 15.89 89.21 14.37C89.21 12.85 88.84 11.48 88.1 10.26Q87.65 9.49 87.06 8.85Q86.23 7.95 85.1 7.32C83.84 6.6 82.43 6.24 80.87 6.24C79.31 6.24 77.89 6.6 76.61 7.32Q75.63 7.88 74.86 8.65Q74.14 9.36 73.61 10.26C72.89 11.48 72.53 12.85 72.53 14.37C72.53 15.89 72.9 17.26 73.64 18.48Q74.12 19.27 74.75 19.92Q75.57 20.77 76.64 21.39ZM63.8 28.5C64.2 28.56 64.59 28.59 64.97 28.59C66.59 28.59 67.84 28.18 68.72 27.36C69.6 26.56 70.04 25.42 70.04 23.94L70.04 6.54L65.93 6.54L65.93 23.7C65.93 24.26 65.78 24.66 65.48 24.9C65.2 25.16 64.76 25.29 64.16 25.29C63.64 25.29 63.2 25.25 62.84 25.17L62.84 28.32C63.08 28.4 63.4 28.46 63.8 28.5ZM31.44 18.3C30.8 18.7 30.07 18.9 29.25 18.9Q28.5 18.9 27.83 18.66Q27.43 18.52 27.06 18.3C26.4 17.9 25.88 17.36 25.5 16.68C25.12 15.98 24.93 15.21 24.93 14.37Q24.93 13.24 25.37 12.31Q25.43 12.18 25.5 12.06C25.88 11.38 26.4 10.84 27.06 10.44C27.72 10.02 28.45 9.81 29.25 9.81Q30.12 9.81 30.85 10.12Q31.16 10.25 31.44 10.44C32.1 10.84 32.62 11.38 33 12.06C33.4 12.74 33.6 13.51 33.6 14.37C33.6 15.21 33.4 15.98 33 16.68Q32.69 17.22 32.27 17.65Q31.9 18.02 31.44 18.3ZM49.93 18.3C49.29 18.7 48.56 18.9 47.74 18.9C46.94 18.9 46.21 18.7 45.55 18.3C44.89 17.9 44.37 17.36 43.99 16.68C43.61 15.98 43.42 15.21 43.42 14.37C43.42 13.51 43.61 12.74 43.99 12.06C44.37 11.38 44.89 10.84 45.55 10.44C46.21 10.02 46.94 9.81 47.74 9.81Q48.6 9.81 49.34 10.12Q49.64 10.25 49.93 10.44C50.59 10.84 51.11 11.38 51.49 12.06C51.89 12.74 52.09 13.51 52.09 14.37C52.09 15.21 51.89 15.98 51.49 16.68Q51.18 17.22 50.75 17.65Q50.38 18.02 49.93 18.3ZM83.06 18.3C82.42 18.7 81.69 18.9 80.87 18.9C80.07 18.9 79.34 18.7 78.68 18.3C78.02 17.9 77.5 17.36 77.12 16.68C76.74 15.98 76.55 15.21 76.55 14.37C76.55 13.51 76.74 12.74 77.12 12.06C77.5 11.38 78.02 10.84 78.68 10.44C79.34 10.02 80.07 9.81 80.87 9.81C81.69 9.81 82.42 10.02 83.06 10.44C83.72 10.84 84.24 11.38 84.62 12.06C85.02 12.74 85.22 13.51 85.22 14.37C85.22 15.21 85.02 15.98 84.62 16.68C84.24 17.36 83.72 17.9 83.06 18.3ZM101.88 18.3C101.2 18.7 100.43 18.9 99.57 18.9C98.83 18.9 98.13 18.77 97.47 18.51C96.83 18.25 96.29 17.89 95.85 17.43L95.85 11.34C96.31 10.84 96.85 10.47 97.47 10.23C98.11 9.97 98.81 9.84 99.57 9.84C100.43 9.84 101.2 10.04 101.88 10.44C102.58 10.82 103.13 11.36 103.53 12.06C103.93 12.74 104.13 13.51 104.13 14.37C104.13 15.23 103.93 16 103.53 16.68C103.13 17.36 102.58 17.9 101.88 18.3Z" fill="#A0A0A0" fill-opacity="1.000000" fill-rule="evenodd"/>
</svg>
