<svg width="111.652222" height="41.011353" viewBox="0 0 111.652 41.0114" fill="none" xmlns="http://www.w3.org/2000/svg" xmlns:xlink="http://www.w3.org/1999/xlink">
	<desc>
			Created with Pixso.
	</desc>
	<defs/>
	<path d="M56.16 4.47C56.92 4.5 57.65 4.76 58.22 5.2C59 5.86 59.21 6.96 58.84 7.84C57.4 10.47 53.97 12.23 51.63 12.81C50.23 13.1 48.46 13.1 47.18 12.66C46.56 12.99 46.04 14.06 45.29 13.62C44.2 12.86 45.14 11.67 44.51 10.83C44.38 10.66 44.05 10.64 43.89 10.36C43.02 8.68 44.09 7.07 45.29 5.79C47.28 3.81 52.99 1.62 56.16 4.47ZM49.53 5.79C48.42 5.97 47.16 6.4 46.48 7.1C45.8 7.81 45.37 8.49 45.78 9.23C47.22 8.27 47.92 6.96 49.53 6.15C49.53 6.01 49.78 5.9 49.53 5.79ZM56.24 6.15C53.4 5.93 51.26 7.84 49.24 9.66C49.12 9.96 48.38 10.29 48.95 10.62C51.67 10.84 54.27 10.14 56.24 8.53C56.82 8.06 57.23 7.43 56.95 6.77C56.82 6.52 56.53 6.26 56.24 6.15ZM80.87 17.05C82.19 19.91 83.3 24.41 80.87 27.15C80.22 27.81 79.06 28.42 78.32 27.92C75.6 25.98 74.45 23.2 72.76 20.71C72.51 20.6 72.51 20.9 72.39 21.01C71.77 23.53 72.93 26.82 70.99 28.8C70.25 28.91 69.56 28.57 69.3 27.92C68.35 25.32 69.34 22.61 69.59 20.02C70.17 18.7 70.41 17.16 71.69 16.18C73.75 16.91 74.74 18.96 75.93 20.46C76.8 21.59 77.5 22.87 78.48 23.9C79.35 23.57 78.92 22.56 78.9 21.96C78.57 19.58 77.83 17.38 77.12 15.12C77.08 14.53 76.71 13.54 77.41 13.18C79.27 13.91 80.05 15.63 80.87 17.05ZM68.44 16.18C68.44 16.73 67.94 17.41 67.53 17.49C63.58 18.04 59.17 17.71 55.46 18.81C55.34 19.21 55.87 19.29 56.16 19.4C59.33 19.83 62.67 19.94 65.76 20.64C67.39 21.01 67.98 22.73 68.11 24.15C68.18 25.28 67.7 26.64 66.46 27.41C63.41 29.13 58.76 29.05 55.67 27.48C54.49 26.89 53.36 25.95 53.28 24.77C53.29 23.84 53.73 23.11 54.47 22.76C57.44 21.7 61.11 22.29 63.66 23.64C63.82 24.37 62.93 24.33 62.5 24.59C59.66 26.05 57.52 22.95 54.88 24.08C54.51 24.3 54.25 24.91 54.68 25.1C57.93 26.38 61.56 25.47 64.77 24.66C65.14 24.55 65.59 24.23 65.63 23.9C65.51 22.73 64.03 22.47 63.08 22.14C60.28 21.52 57.19 21.52 54.18 21.26C53.61 21.15 52.87 20.8 52.7 20.39C52.37 19.51 52.37 18.3 53.11 17.57C56.94 14.57 62.75 14.83 67.61 15.63C67.94 15.74 68.31 15.85 68.44 16.18ZM50.44 17.57C50.81 21.08 51.01 24.33 50.93 28.03C50.85 28.5 50.23 28.61 49.82 28.8C49.16 28.91 48.31 28.78 48.05 28.47C47.1 27.11 47.43 25.29 47.35 23.64C47.47 21.04 47.43 18.23 48.25 15.81C48.41 15.46 48.87 15.15 49.24 15.37C50.23 15.81 50.4 16.69 50.44 17.57ZM96.2 17.05C96.4 17.35 96.6 17.81 96.2 18.01C94.34 18.74 91.83 18.41 89.69 18.63C89.11 19.07 88.66 19.8 88.86 20.46C89.07 20.57 89.26 20.73 89.48 20.71C90.8 20.79 92.78 20.16 93.64 21.26C93.86 21.59 93.62 22.81 93.03 22.83C91.42 23.02 88.78 22.65 88 23.02C87.01 23.6 87.09 24.74 86.72 25.65C87.42 26.05 88.16 25.64 88.99 25.54C90.51 25.32 92.2 24.92 93.73 25.21C94.01 25.69 94.43 26.2 94.14 26.79C91.54 28.61 88.19 30.49 84.62 29.16C83.28 28.63 82.69 26.82 83.14 25.29C83.43 24.19 84.71 23.13 83.92 21.96C83.8 21.45 84.13 21.01 84.62 20.9C85.98 20.9 85.69 19.4 86.39 18.7C85.61 17.93 83.64 17.97 83.84 16.43C84.79 15.99 85.94 16.14 87.01 15.99C89.44 15.56 92.16 15.3 94.63 15.56C95.13 15.64 95.79 16.51 96.2 17.05ZM37.38 8.71C41.18 11.47 46.11 16.18 45.49 21.59C44.75 25.87 39.65 29.09 35.32 30.12C31.12 31.21 25.85 31.1 21.56 30.22C21.28 30.92 20.99 31.76 20.08 32.05C19.51 32.24 18.76 32.13 18.31 31.8C17.03 30.74 18.06 28.69 16.21 28.03C12.59 26.68 8.67 24.01 6.82 20.71C6.57 20.06 6.86 19.4 7.31 18.88C10.16 16.87 13.74 16.07 17.32 15.45C17.53 15.52 17.45 15.26 17.61 15.19C17.82 13 17.9 10.76 18.68 8.79C18.86 8.51 19.3 8.42 19.59 8.6C21.85 10.14 20.78 13.03 21.77 15.12C26.1 15.3 30.42 15.48 33.84 17.64C34.99 18.48 35.27 20.09 34.91 21.01C34.55 21.92 33.34 22.58 32.23 22.65C31.49 22.65 30.09 22.72 30.17 22.21C30.25 21.71 32.69 20.89 31.94 20.2C30.87 19.21 25.48 18.63 22.15 18.26C21.74 18.19 21.36 18.3 21.36 18.7C21.28 21.48 21.03 24.55 21.56 27.23C21.61 27.41 21.85 27.63 22.06 27.66C27.95 28.51 34.17 28.03 38.78 25.03C40.92 23.49 41.62 21.33 41.25 18.96C39.4 12.34 31.61 8.35 25.23 5.79C19.01 3.37 12.13 2.13 4.76 2.46C3.59 2.53 1.73 2.89 1.71 3.26C1.7 3.63 3.82 3.52 3.56 4.21C3.31 4.91 1.16 4.5 0.52 4.32C-0.12 4.15 -0.06 3.34 0.11 2.82C1.71 0.3 6.19 0.1 8.22 0.01C19.42 -0.25 30.26 3.54 37.38 8.71ZM17.2 18.52C14.36 18.55 11.35 18.81 8.71 19.69C8.18 19.87 7.52 20.38 7.93 21.01C9 22.29 10.53 23.34 11.97 24.08C13.4 24.82 15.3 25.76 17.03 25.98C17.45 23.6 17.45 21.26 17.4 18.81C17.24 18.74 17.4 18.59 17.2 18.52ZM102.33 15.19C102.21 18.37 98.87 20.35 98.87 23.53C99 23.64 99.08 23.79 99.24 23.71C101.92 21.12 104.56 17.42 108.47 16.32C109.5 16.25 110.43 17.05 110.82 17.64C112.18 20.06 111.85 23.46 109.95 25.65C108 27.81 104.6 29.97 100.73 29.6C99.12 33.12 98.01 36.81 97.39 40.65C97.06 41.42 96.28 40.72 95.79 40.58C92.45 38.24 95.19 32.04 95.41 31.25C95.64 30.46 96.53 28.6 97.19 27.04C95.62 24.55 96.61 21.55 97.89 19.25C98.87 17.71 100.24 16.18 101.84 15.01C102.05 15.01 102.21 15.04 102.33 15.19ZM108.97 19.14C108.47 19.07 108.27 19.65 107.85 19.76C105.96 21.66 104.06 23.57 103.12 25.83C104.39 25.98 105.46 25.25 106.58 24.85C108.47 23.79 109.67 22.03 109.54 20.02C109.46 19.69 109.13 19.43 108.97 19.14Z" fill="#F40009" fill-opacity="1.000000" fill-rule="nonzero"/>
	<path d="M56.16 4.47C56.92 4.5 57.65 4.76 58.22 5.2C59 5.86 59.21 6.96 58.84 7.84C57.4 10.47 53.97 12.23 51.63 12.81C50.23 13.1 48.46 13.1 47.18 12.66C46.56 12.99 46.04 14.06 45.29 13.62C44.2 12.86 45.14 11.67 44.51 10.83C44.38 10.66 44.05 10.64 43.89 10.36C43.02 8.68 44.09 7.07 45.29 5.79C47.28 3.81 52.99 1.62 56.16 4.47ZM49.53 5.79C48.42 5.97 47.16 6.4 46.48 7.1C45.8 7.81 45.37 8.49 45.78 9.23C47.22 8.27 47.92 6.96 49.53 6.15C49.53 6.01 49.78 5.9 49.53 5.79ZM56.24 6.15C53.4 5.93 51.26 7.84 49.24 9.66C49.12 9.96 48.38 10.29 48.95 10.62C51.67 10.84 54.27 10.14 56.24 8.53C56.82 8.06 57.23 7.43 56.95 6.77C56.82 6.52 56.53 6.26 56.24 6.15ZM80.87 17.05C82.19 19.91 83.3 24.41 80.87 27.15C80.22 27.81 79.06 28.42 78.32 27.92C75.6 25.98 74.45 23.2 72.76 20.71C72.51 20.6 72.51 20.9 72.39 21.01C71.77 23.53 72.93 26.82 70.99 28.8C70.25 28.91 69.56 28.57 69.3 27.92C68.35 25.32 69.34 22.61 69.59 20.02C70.17 18.7 70.41 17.16 71.69 16.18C73.75 16.91 74.74 18.96 75.93 20.46C76.8 21.59 77.5 22.87 78.48 23.9C79.35 23.57 78.92 22.56 78.9 21.96C78.57 19.58 77.83 17.38 77.12 15.12C77.08 14.53 76.71 13.54 77.41 13.18C79.27 13.91 80.05 15.63 80.87 17.05ZM68.44 16.18C68.44 16.73 67.94 17.41 67.53 17.49C63.58 18.04 59.17 17.71 55.46 18.81C55.34 19.21 55.87 19.29 56.16 19.4C59.33 19.83 62.67 19.94 65.76 20.64C67.39 21.01 67.98 22.73 68.11 24.15C68.18 25.28 67.7 26.64 66.46 27.41C63.41 29.13 58.76 29.05 55.67 27.48C54.49 26.89 53.36 25.95 53.28 24.77C53.29 23.84 53.73 23.11 54.47 22.76C57.44 21.7 61.11 22.29 63.66 23.64C63.82 24.37 62.93 24.33 62.5 24.59C59.66 26.05 57.52 22.95 54.88 24.08C54.51 24.3 54.25 24.91 54.68 25.1C57.93 26.38 61.56 25.47 64.77 24.66C65.14 24.55 65.59 24.23 65.63 23.9C65.51 22.73 64.03 22.47 63.08 22.14C60.28 21.52 57.19 21.52 54.18 21.26C53.61 21.15 52.87 20.8 52.7 20.39C52.37 19.51 52.37 18.3 53.11 17.57C56.94 14.57 62.75 14.83 67.61 15.63C67.94 15.74 68.31 15.85 68.44 16.18ZM50.44 17.57C50.81 21.08 51.01 24.33 50.93 28.03C50.85 28.5 50.23 28.61 49.82 28.8C49.16 28.91 48.31 28.78 48.05 28.47C47.1 27.11 47.43 25.29 47.35 23.64C47.47 21.04 47.43 18.23 48.25 15.81C48.41 15.46 48.87 15.15 49.24 15.37C50.23 15.81 50.4 16.69 50.44 17.57ZM96.2 17.05C96.4 17.35 96.6 17.81 96.2 18.01C94.34 18.74 91.83 18.41 89.69 18.63C89.11 19.07 88.66 19.8 88.86 20.46C89.07 20.57 89.26 20.73 89.48 20.71C90.8 20.79 92.78 20.16 93.64 21.26C93.86 21.59 93.62 22.81 93.03 22.83C91.42 23.02 88.78 22.65 88 23.02C87.01 23.6 87.09 24.74 86.72 25.65C87.42 26.05 88.16 25.64 88.99 25.54C90.51 25.32 92.2 24.92 93.73 25.21C94.01 25.69 94.43 26.2 94.14 26.79C91.54 28.61 88.19 30.49 84.62 29.16C83.28 28.63 82.69 26.82 83.14 25.29C83.43 24.19 84.71 23.13 83.92 21.96C83.8 21.45 84.13 21.01 84.62 20.9C85.98 20.9 85.69 19.4 86.39 18.7C85.61 17.93 83.64 17.97 83.84 16.43C84.79 15.99 85.94 16.14 87.01 15.99C89.44 15.56 92.16 15.3 94.63 15.56C95.13 15.64 95.79 16.51 96.2 17.05ZM37.38 8.71C41.18 11.47 46.11 16.18 45.49 21.59C44.75 25.87 39.65 29.09 35.32 30.12C31.12 31.21 25.85 31.1 21.56 30.22C21.28 30.92 20.99 31.76 20.08 32.05C19.51 32.24 18.76 32.13 18.31 31.8C17.03 30.74 18.06 28.69 16.21 28.03C12.59 26.68 8.67 24.01 6.82 20.71C6.57 20.06 6.86 19.4 7.31 18.88C10.16 16.87 13.74 16.07 17.32 15.45C17.53 15.52 17.45 15.26 17.61 15.19C17.82 13 17.9 10.76 18.68 8.79C18.86 8.51 19.3 8.42 19.59 8.6C21.85 10.14 20.78 13.03 21.77 15.12C26.1 15.3 30.42 15.48 33.84 17.64C34.99 18.48 35.27 20.09 34.91 21.01C34.55 21.92 33.34 22.58 32.23 22.65C31.49 22.65 30.09 22.72 30.17 22.21C30.25 21.71 32.69 20.89 31.94 20.2C30.87 19.21 25.48 18.63 22.15 18.26C21.74 18.19 21.36 18.3 21.36 18.7C21.28 21.48 21.03 24.55 21.56 27.23C21.61 27.41 21.85 27.63 22.06 27.66C27.95 28.51 34.17 28.03 38.78 25.03C40.92 23.49 41.62 21.33 41.25 18.96C39.4 12.34 31.61 8.35 25.23 5.79C19.01 3.37 12.13 2.13 4.76 2.46C3.59 2.53 1.73 2.89 1.71 3.26C1.7 3.63 3.82 3.52 3.56 4.21C3.31 4.91 1.16 4.5 0.52 4.32C-0.12 4.15 -0.06 3.34 0.11 2.82C1.71 0.3 6.19 0.1 8.22 0.01C19.42 -0.25 30.26 3.54 37.38 8.71ZM17.2 18.52C14.36 18.55 11.35 18.81 8.71 19.69C8.18 19.87 7.52 20.38 7.93 21.01C9 22.29 10.53 23.34 11.97 24.08C13.4 24.82 15.3 25.76 17.03 25.98C17.45 23.6 17.45 21.26 17.4 18.81C17.24 18.74 17.4 18.59 17.2 18.52ZM102.33 15.19C102.21 18.37 98.87 20.35 98.87 23.53C99 23.64 99.08 23.79 99.24 23.71C101.92 21.12 104.56 17.42 108.47 16.32C109.5 16.25 110.43 17.05 110.82 17.64C112.18 20.06 111.85 23.46 109.95 25.65C108 27.81 104.6 29.97 100.73 29.6C99.12 33.12 98.01 36.81 97.39 40.65C97.06 41.42 96.28 40.72 95.79 40.58C92.45 38.24 95.19 32.04 95.41 31.25C95.64 30.46 96.53 28.6 97.19 27.04C95.62 24.55 96.61 21.55 97.89 19.25C98.87 17.71 100.24 16.18 101.84 15.01C102.05 15.01 102.21 15.04 102.33 15.19ZM108.97 19.14C108.47 19.07 108.27 19.65 107.85 19.76C105.96 21.66 104.06 23.57 103.12 25.83C104.39 25.98 105.46 25.25 106.58 24.85C108.47 23.79 109.67 22.03 109.54 20.02C109.46 19.69 109.13 19.43 108.97 19.14Z" fill="#434343" fill-opacity="1.000000" fill-rule="nonzero"/>
</svg>
