<svg width="115.021240" height="19.761902" viewBox="0 0 115.021 19.7619" fill="none" xmlns="http://www.w3.org/2000/svg" xmlns:xlink="http://www.w3.org/1999/xlink">
	<desc>
			Created with Pixso.
	</desc>
	<defs/>
	<path d="M9 3.11C7.66 3.11 7.25 3.63 7.25 4.8L7.25 6.74L10.87 6.74L10.52 9.9L7.25 9.9L7.25 19.45L2.91 19.45L2.91 9.9L0 9.9L0 6.77L2.91 6.77L2.91 4.88C2.91 1.67 4.36 0 8.38 0C9.22 0 10.08 0.04 10.92 0.14L10.92 3.11L9 3.11Z" fill="#F40009" fill-opacity="1.000000" fill-rule="nonzero"/>
	<path d="M9 3.11C7.66 3.11 7.25 3.63 7.25 4.8L7.25 6.74L10.87 6.74L10.52 9.9L7.25 9.9L7.25 19.45L2.91 19.45L2.91 9.9L0 9.9L0 6.77L2.91 6.77L2.91 4.88C2.91 1.67 4.36 0 8.38 0C9.22 0 10.08 0.04 10.92 0.14L10.92 3.11L9 3.11Z" fill="#434343" fill-opacity="1.000000" fill-rule="nonzero"/>
	<path d="M11.16 12.7C11.16 9.16 13.05 6.48 17.04 6.48C19.2 6.48 20.52 7.46 21.17 8.7L21.17 6.77L25.32 6.77L25.32 19.47L21.14 19.47L21.14 17.56C20.55 18.78 19.17 19.73 17.02 19.73C13.05 19.73 11.14 17.08 11.14 13.51L11.16 12.7ZM15.51 13.56C15.51 15.45 16.29 16.72 18.31 16.72C20.09 16.72 20.98 15.57 20.98 13.75L20.98 12.46C20.98 10.64 20.06 9.49 18.31 9.49C16.29 9.49 15.51 10.74 15.51 12.65L15.51 13.56Z" fill="#F40009" fill-opacity="1.000000" fill-rule="nonzero"/>
	<path d="M11.16 12.7C11.16 9.16 13.05 6.48 17.04 6.48C19.2 6.48 20.52 7.46 21.17 8.7L21.17 6.77L25.32 6.77L25.32 19.47L21.14 19.47L21.14 17.56C20.55 18.78 19.17 19.73 17.02 19.73C13.05 19.73 11.14 17.08 11.14 13.51L11.16 12.7ZM15.51 13.56C15.51 15.45 16.29 16.72 18.31 16.72C20.09 16.72 20.98 15.57 20.98 13.75L20.98 12.46C20.98 10.64 20.06 9.49 18.31 9.49C16.29 9.49 15.51 10.74 15.51 12.65L15.51 13.56Z" fill="#434343" fill-opacity="1.000000" fill-rule="nonzero"/>
	<path d="M34.33 6.48C36.01 6.48 37.63 6.79 38.49 7.34L37.52 10.07C36.63 9.68 35.63 9.49 34.63 9.49C32.28 9.49 31.26 10.69 31.26 12.75L31.26 13.49C31.26 15.55 32.28 16.74 34.63 16.74C35.63 16.74 36.63 16.53 37.52 16.14L38.49 18.87C37.63 19.4 36.03 19.73 34.33 19.73C29.24 19.73 26.94 17.32 26.94 13.42L26.94 12.82C26.94 8.92 29.24 6.48 34.33 6.48Z" fill="#F40009" fill-opacity="1.000000" fill-rule="nonzero"/>
	<path d="M34.33 6.48C36.01 6.48 37.63 6.79 38.49 7.34L37.52 10.07C36.63 9.68 35.63 9.49 34.63 9.49C32.28 9.49 31.26 10.69 31.26 12.75L31.26 13.49C31.26 15.55 32.28 16.74 34.63 16.74C35.63 16.74 36.63 16.53 37.52 16.14L38.49 18.87C37.63 19.4 36.03 19.73 34.33 19.73C29.24 19.73 26.94 17.32 26.94 13.42L26.94 12.82C26.94 8.92 29.24 6.48 34.33 6.48Z" fill="#434343" fill-opacity="1.000000" fill-rule="nonzero"/>
	<path d="M39.05 13.58L39.05 12.46C39.05 8.85 41.37 6.48 46.1 6.48C50.55 6.48 52.52 8.87 52.52 12.41L52.52 14.45L43.4 14.45C43.48 16.19 44.37 16.96 46.77 16.96C48.33 16.96 49.9 16.69 51.38 16.19L52.16 18.82C51.03 19.35 48.68 19.76 46.61 19.76C41.1 19.73 39.05 17.32 39.05 13.58ZM43.4 11.91L48.63 11.91L48.63 11.6C48.63 10.21 48.01 9.11 46.1 9.11C44.15 9.11 43.4 10.21 43.4 11.91Z" fill="#F40009" fill-opacity="1.000000" fill-rule="nonzero"/>
	<path d="M39.05 13.58L39.05 12.46C39.05 8.85 41.37 6.48 46.1 6.48C50.55 6.48 52.52 8.87 52.52 12.41L52.52 14.45L43.4 14.45C43.48 16.19 44.37 16.96 46.77 16.96C48.33 16.96 49.9 16.69 51.38 16.19L52.16 18.82C51.03 19.35 48.68 19.76 46.61 19.76C41.1 19.73 39.05 17.32 39.05 13.58ZM43.4 11.91L48.63 11.91L48.63 11.6C48.63 10.21 48.01 9.11 46.1 9.11C44.15 9.11 43.4 10.21 43.4 11.91Z" fill="#434343" fill-opacity="1.000000" fill-rule="nonzero"/>
	<path d="M68.59 13.51C68.59 17.05 66.68 19.73 62.68 19.73C60.53 19.73 59.02 18.78 58.42 17.56L58.42 19.47L54.32 19.47L54.32 0.38L58.67 0.04L58.67 8.54C59.29 7.41 60.69 6.5 62.71 6.5C66.68 6.5 68.62 9.16 68.62 12.72L68.59 13.51ZM64.25 12.63C64.25 10.83 63.47 9.49 61.39 9.49C59.61 9.49 58.67 10.62 58.67 12.44L58.67 13.78C58.67 15.59 59.64 16.72 61.39 16.72C63.47 16.72 64.25 15.38 64.25 13.58L64.25 12.63Z" fill="#F40009" fill-opacity="1.000000" fill-rule="nonzero"/>
	<path d="M68.59 13.51C68.59 17.05 66.68 19.73 62.68 19.73C60.53 19.73 59.02 18.78 58.42 17.56L58.42 19.47L54.32 19.47L54.32 0.38L58.67 0.04L58.67 8.54C59.29 7.41 60.69 6.5 62.71 6.5C66.68 6.5 68.62 9.16 68.62 12.72L68.59 13.51ZM64.25 12.63C64.25 10.83 63.47 9.49 61.39 9.49C59.61 9.49 58.67 10.62 58.67 12.44L58.67 13.78C58.67 15.59 59.64 16.72 61.39 16.72C63.47 16.72 64.25 15.38 64.25 13.58L64.25 12.63Z" fill="#434343" fill-opacity="1.000000" fill-rule="nonzero"/>
	<path d="M70.02 13.42L70.02 12.77C70.02 9.11 72.37 6.48 77.14 6.48C81.92 6.48 84.26 9.11 84.26 12.77L84.26 13.42C84.26 17.08 81.92 19.71 77.14 19.71C72.37 19.71 70.02 17.1 70.02 13.42ZM79.95 12.51C79.95 10.83 79.17 9.49 77.14 9.49C75.12 9.49 74.34 10.83 74.34 12.51L74.34 13.7C74.34 15.38 75.12 16.72 77.14 16.72C79.17 16.72 79.95 15.38 79.95 13.7L79.95 12.51Z" fill="#F40009" fill-opacity="1.000000" fill-rule="nonzero"/>
	<path d="M70.02 13.42L70.02 12.77C70.02 9.11 72.37 6.48 77.14 6.48C81.92 6.48 84.26 9.11 84.26 12.77L84.26 13.42C84.26 17.08 81.92 19.71 77.14 19.71C72.37 19.71 70.02 17.1 70.02 13.42ZM79.95 12.51C79.95 10.83 79.17 9.49 77.14 9.49C75.12 9.49 74.34 10.83 74.34 12.51L74.34 13.7C74.34 15.38 75.12 16.72 77.14 16.72C79.17 16.72 79.95 15.38 79.95 13.7L79.95 12.51Z" fill="#434343" fill-opacity="1.000000" fill-rule="nonzero"/>
	<path d="M85.75 13.42L85.75 12.77C85.75 9.11 88.1 6.48 92.87 6.48C97.64 6.48 99.99 9.11 99.99 12.77L99.99 13.42C99.99 17.08 97.64 19.71 92.87 19.71C88.1 19.71 85.75 17.1 85.75 13.42ZM95.68 12.51C95.68 10.83 94.89 9.49 92.87 9.49C90.85 9.49 90.06 10.83 90.06 12.51L90.06 13.7C90.06 15.38 90.85 16.72 92.87 16.72C94.89 16.72 95.68 15.38 95.68 13.7L95.68 12.51Z" fill="#F40009" fill-opacity="1.000000" fill-rule="nonzero"/>
	<path d="M85.75 13.42L85.75 12.77C85.75 9.11 88.1 6.48 92.87 6.48C97.64 6.48 99.99 9.11 99.99 12.77L99.99 13.42C99.99 17.08 97.64 19.71 92.87 19.71C88.1 19.71 85.75 17.1 85.75 13.42ZM95.68 12.51C95.68 10.83 94.89 9.49 92.87 9.49C90.85 9.49 90.06 10.83 90.06 12.51L90.06 13.7C90.06 15.38 90.85 16.72 92.87 16.72C94.89 16.72 95.68 15.38 95.68 13.7L95.68 12.51Z" fill="#434343" fill-opacity="1.000000" fill-rule="nonzero"/>
	<path d="M105.95 12.82L110.24 6.74L114.83 6.74L110.35 13.03L115.02 19.47L110.4 19.47L105.95 13.25L105.95 19.47L101.64 19.47L101.64 0.38L105.95 0.02L105.95 12.82Z" fill="#F40009" fill-opacity="1.000000" fill-rule="nonzero"/>
	<path d="M105.95 12.82L110.24 6.74L114.83 6.74L110.35 13.03L115.02 19.47L110.4 19.47L105.95 13.25L105.95 19.47L101.64 19.47L101.64 0.38L105.95 0.02L105.95 12.82Z" fill="#434343" fill-opacity="1.000000" fill-rule="nonzero"/>
</svg>
