<svg width="70.000000" height="13.560059" viewBox="0 0 70 13.5601" fill="none" xmlns="http://www.w3.org/2000/svg" xmlns:xlink="http://www.w3.org/1999/xlink">
	<desc>
			Created with Pixso.
	</desc>
	<defs/>
	<path id="_Path_" d="M5.48 2.13C4.66 2.13 4.41 2.49 4.41 3.29L4.41 4.62L6.61 4.62L6.4 6.79L4.41 6.79L4.41 13.34L1.77 13.34L1.77 6.79L0 6.79L0 4.64L1.77 4.64L1.77 3.34C1.77 1.14 2.65 0 5.1 0C5.61 0 6.13 0.03 6.64 0.09L6.64 2.13L5.48 2.13Z" fill="#004F9D" fill-opacity="1.000000" fill-rule="nonzero"/>
	<path id="_Compound_Path_" d="M6.79 8.71C6.79 6.28 7.94 4.44 10.37 4.44C11.68 4.44 12.49 5.12 12.88 5.97L12.88 4.64L15.41 4.64L15.41 13.36L12.87 13.36L12.87 12.04C12.5 12.88 11.67 13.54 10.35 13.54C7.94 13.54 6.78 11.72 6.78 9.27L6.79 8.71ZM9.43 9.3C9.43 10.6 9.91 11.47 11.14 11.47C12.23 11.47 12.77 10.68 12.77 9.43L12.77 8.55C12.77 7.3 12.21 6.51 11.14 6.51C9.91 6.51 9.43 7.37 9.43 8.68L9.43 9.3Z" fill="#004F9D" fill-opacity="1.000000" fill-rule="nonzero"/>
	<path id="_Path_2" d="M20.89 4.44C21.91 4.44 22.9 4.66 23.42 5.03L22.83 6.91C22.29 6.64 21.68 6.51 21.07 6.51C19.65 6.51 19.02 7.33 19.02 8.74L19.02 9.25C19.02 10.67 19.65 11.49 21.07 11.49C21.68 11.49 22.29 11.34 22.83 11.08L23.42 12.95C22.9 13.31 21.93 13.54 20.89 13.54C17.79 13.54 16.4 11.88 16.4 9.2L16.4 8.79C16.4 6.12 17.79 4.44 20.89 4.44Z" fill="#004F9D" fill-opacity="1.000000" fill-rule="nonzero"/>
	<path id="_Compound_Path_2" d="M23.77 9.32L23.77 8.55C23.77 6.07 25.18 4.44 28.05 4.44C30.76 4.44 31.96 6.09 31.96 8.52L31.96 9.91L26.41 9.91C26.46 11.11 27 11.63 28.46 11.63C29.41 11.63 30.37 11.45 31.27 11.11L31.74 12.91C31.06 13.28 29.63 13.55 28.36 13.55C25.01 13.54 23.77 11.88 23.77 9.32ZM26.41 8.17L29.59 8.17L29.59 7.96C29.59 7 29.22 6.25 28.05 6.25C26.87 6.25 26.41 7 26.41 8.17Z" fill="#004F9D" fill-opacity="1.000000" fill-rule="nonzero"/>
	<path id="_Compound_Path_3" d="M41.74 9.27C41.74 11.7 40.58 13.54 38.15 13.54C36.83 13.54 35.91 12.88 35.55 12.04L35.55 13.36L33.06 13.36L33.06 0.26L35.7 0.03L35.7 5.86C36.08 5.08 36.93 4.46 38.16 4.46C40.58 4.46 41.76 6.28 41.76 8.73L41.74 9.27ZM39.1 8.66C39.1 7.43 38.62 6.51 37.36 6.51C36.28 6.51 35.7 7.28 35.7 8.53L35.7 9.45C35.7 10.7 36.29 11.47 37.36 11.47C38.62 11.47 39.1 10.55 39.1 9.32L39.1 8.66Z" fill="#004F9D" fill-opacity="1.000000" fill-rule="nonzero"/>
	<path id="_Compound_Path_4" d="M42.61 9.2L42.61 8.76C42.61 6.25 44.04 4.44 46.95 4.44C49.85 4.44 51.28 6.25 51.28 8.76L51.28 9.2C51.28 11.72 49.85 13.52 46.95 13.52C44.04 13.52 42.61 11.73 42.61 9.2ZM48.65 8.58C48.65 7.43 48.18 6.51 46.95 6.51C45.72 6.51 45.24 7.43 45.24 8.58L45.24 9.4C45.24 10.55 45.72 11.47 46.95 11.47C48.18 11.47 48.65 10.55 48.65 9.4L48.65 8.58Z" fill="#004F9D" fill-opacity="1.000000" fill-rule="nonzero"/>
	<path id="_Compound_Path_5" d="M52.18 9.2L52.18 8.76C52.18 6.25 53.61 4.44 56.52 4.44C59.42 4.44 60.85 6.25 60.85 8.76L60.85 9.2C60.85 11.72 59.42 13.52 56.52 13.52C53.61 13.52 52.18 11.73 52.18 9.2ZM58.22 8.58C58.22 7.43 57.75 6.51 56.52 6.51C55.29 6.51 54.81 7.43 54.81 8.58L54.81 9.4C54.81 10.55 55.29 11.47 56.52 11.47C57.75 11.47 58.22 10.55 58.22 9.4L58.22 8.58Z" fill="#004F9D" fill-opacity="1.000000" fill-rule="nonzero"/>
	<path id="_Path_3" d="M64.48 8.79L67.09 4.62L69.88 4.62L67.15 8.94L70 13.36L67.19 13.36L64.48 9.09L64.48 13.36L61.85 13.36L61.85 0.26L64.48 0.01L64.48 8.79Z" fill="#004F9D" fill-opacity="1.000000" fill-rule="nonzero"/>
</svg>
