<svg width="26.474243" height="22.000000" viewBox="0 0 26.4742 22" fill="none" xmlns="http://www.w3.org/2000/svg" xmlns:xlink="http://www.w3.org/1999/xlink">
	<desc>
			Created with Pixso.
	</desc>
	<defs/>
	<path id="feFacebook2" d="M18.16 22L18.16 13.48L21.6 13.48L22.12 10.16L18.16 10.16L18.16 8.04C18.16 7.07 18.48 6.42 20.14 6.42L22.26 6.42L22.26 3.45C21.23 3.36 20.2 3.31 19.17 3.32C16.12 3.32 14.04 4.86 14.04 7.71L14.04 10.16L10.58 10.16L10.58 13.48L14.04 13.48L14.04 22L1.46 22C0.65 22 0 21.45 0 20.78L0 1.21C0 0.54 0.65 0 1.46 0L25.01 0C25.82 0 26.47 0.54 26.47 1.21L26.47 20.78C26.47 21.45 25.82 22 25.01 22L18.16 22Z" fill="#D9D9D9" fill-opacity="1.000000" fill-rule="evenodd"/>
</svg>
