<svg width="18.191528" height="30.000000" viewBox="0 0 18.1915 30" fill="none" xmlns="http://www.w3.org/2000/svg" xmlns:xlink="http://www.w3.org/1999/xlink">
	<desc>
			Created with Pixso.
	</desc>
	<defs/>
	<path d="M8.18 0C8.43 0 8.64 0.09 8.82 0.27C9 0.46 9.09 0.68 9.09 0.93L9.09 11.25C9.09 11.76 9 12.25 8.81 12.7C8.62 13.14 8.36 13.54 8.02 13.88C7.69 14.22 7.3 14.49 6.86 14.69C6.41 14.88 5.95 14.99 5.45 15L5.45 29.06C5.45 29.31 5.36 29.53 5.18 29.72C5 29.9 4.79 30 4.54 30C4.3 30 4.08 29.9 3.9 29.72C3.72 29.53 3.63 29.31 3.63 29.06L3.63 15C3.13 15 2.66 14.9 2.23 14.7C1.79 14.51 1.41 14.24 1.08 13.9C0.74 13.55 0.48 13.16 0.29 12.71C0.1 12.26 0 11.77 0 11.25L0 0.93C0 0.68 0.08 0.46 0.27 0.27C0.45 0.09 0.66 0 0.9 0C1.15 0 1.36 0.09 1.54 0.27C1.72 0.46 1.81 0.68 1.81 0.93L1.81 11.25C1.81 11.51 1.86 11.75 1.96 11.98C2.05 12.2 2.18 12.4 2.34 12.56C2.5 12.73 2.7 12.87 2.92 12.97C3.15 13.08 3.39 13.13 3.63 13.12L3.63 0.93C3.63 0.68 3.72 0.46 3.9 0.27C4.08 0.09 4.3 0 4.54 0C4.79 0 5 0.09 5.18 0.27C5.36 0.46 5.45 0.68 5.45 0.93L5.45 13.12C5.71 13.12 5.95 13.07 6.16 12.97C6.38 12.88 6.57 12.74 6.73 12.58C6.89 12.41 7.03 12.21 7.13 11.98C7.23 11.74 7.28 11.5 7.27 11.25L7.27 0.93C7.27 0.68 7.36 0.46 7.54 0.27C7.72 0.09 7.93 0 8.18 0ZM18.19 0L18.19 29.06C18.19 29.31 18.1 29.53 17.92 29.72C17.74 29.9 17.52 30 17.28 30C17.03 30 16.82 29.9 16.64 29.72C16.46 29.53 16.37 29.31 16.37 29.06L16.37 20.62C16.02 20.62 15.64 20.62 15.23 20.63C14.82 20.64 14.42 20.64 14.02 20.62C13.62 20.6 13.24 20.54 12.86 20.44C12.48 20.35 12.15 20.2 11.86 19.99C11.58 19.79 11.35 19.51 11.17 19.16C10.99 18.8 10.9 18.35 10.91 17.81L10.91 6.56C10.91 5.65 11.08 4.8 11.41 4.01C11.74 3.22 12.19 2.52 12.77 1.93C13.35 1.33 14.02 0.86 14.79 0.52C15.56 0.18 16.39 0 17.28 0L18.19 0ZM16.37 1.96C15.84 2.07 15.35 2.26 14.92 2.54C14.48 2.83 14.1 3.18 13.77 3.6C13.43 4.02 13.18 4.47 13 4.96C12.82 5.45 12.73 5.98 12.73 6.56L12.73 17.81C12.73 18.06 12.82 18.28 13 18.47C13.18 18.65 13.39 18.75 13.64 18.75L16.37 18.75L16.37 1.96Z" fill="#6563FF" fill-opacity="1.000000" fill-rule="nonzero"/>
</svg>
