<svg width="26.474243" height="22.000000" viewBox="0 0 26.4742 22" fill="none" xmlns="http://www.w3.org/2000/svg" xmlns:xlink="http://www.w3.org/1999/xlink">
	<desc>
			Created with Pixso.
	</desc>
	<defs/>
	<path d="M26.21 8.84L25.15 8.84L25.15 8.8L13.23 8.8L13.23 13.2L20.71 13.2C19.62 15.76 16.69 17.6 13.23 17.6C8.85 17.6 5.29 14.64 5.29 11C5.29 7.35 8.85 4.39 13.23 4.39C15.26 4.39 17.1 5.03 18.5 6.07L22.25 2.96C19.88 1.12 16.72 0 13.23 0C5.92 0 0 4.92 0 11C0 17.07 5.92 22 13.23 22C20.54 22 26.47 17.07 26.47 11C26.47 10.26 26.38 9.54 26.21 8.84Z" fill="#D9D9D9" fill-opacity="1.000000" fill-rule="nonzero"/>
	<path d="M1.52 5.88L5.87 8.53C7.05 6.1 9.9 4.39 13.23 4.39C15.26 4.39 17.1 5.03 18.5 6.07L22.25 2.96C19.88 1.12 16.72 0 13.23 0C8.15 0 3.74 2.38 1.52 5.88Z" fill="#D9D9D9" fill-opacity="1.000000" fill-rule="nonzero"/>
	<path d="M13.23 22C16.65 22 19.76 20.91 22.11 19.14L18.01 16.26C16.64 17.13 14.96 17.6 13.23 17.6C9.79 17.6 6.87 15.77 5.76 13.22L1.45 15.99C3.64 19.55 8.09 22 13.23 22Z" fill="#D9D9D9" fill-opacity="1.000000" fill-rule="nonzero"/>
	<path d="M26.21 8.84L25.15 8.84L25.15 8.8L13.23 8.8L13.23 13.2L20.71 13.2C20.19 14.41 19.25 15.48 18.01 16.26L18.01 16.26L22.11 19.14C21.82 19.36 26.47 16.5 26.47 11C26.47 10.26 26.38 9.54 26.21 8.84Z" fill="#D9D9D9" fill-opacity="1.000000" fill-rule="nonzero"/>
</svg>
