<svg width="26.000000" height="22.000000" viewBox="0 0 26 22" fill="none" xmlns="http://www.w3.org/2000/svg" xmlns:xlink="http://www.w3.org/1999/xlink">
	<desc>
			Created with Pixso.
	</desc>
	<defs/>
	<path d="M23.11 0C23.87 0 24.61 0.25 25.15 0.71C25.69 1.17 26 1.79 26 2.44L26 19.55C26 20.2 25.69 20.82 25.15 21.28C24.61 21.74 23.87 22 23.11 22L2.88 22C2.12 22 1.38 21.74 0.84 21.28C0.3 20.82 0 20.2 0 19.55L0 2.44C0 1.79 0.3 1.17 0.84 0.71C1.38 0.25 2.12 0 2.88 0L23.11 0ZM22.38 18.94L22.38 12.46C22.38 11.4 21.89 10.39 21 9.64C20.12 8.9 18.92 8.48 17.68 8.48C16.45 8.48 15.02 9.11 14.32 10.07L14.32 8.71L10.29 8.71L10.29 18.94L14.32 18.94L14.32 12.91C14.32 11.97 15.22 11.2 16.33 11.2C16.87 11.2 17.38 11.38 17.76 11.7C18.14 12.02 18.35 12.46 18.35 12.91L18.35 18.94L22.38 18.94ZM5.6 6.79C6.24 6.79 6.86 6.57 7.32 6.19C7.77 5.8 8.03 5.28 8.03 4.74C8.03 3.6 6.94 2.67 5.6 2.67C4.95 2.67 4.33 2.89 3.87 3.28C3.42 3.66 3.16 4.19 3.16 4.74C3.16 5.87 4.26 6.79 5.6 6.79ZM7.61 18.94L7.61 8.71L3.61 8.71L3.61 18.94L7.61 18.94Z" fill="#D9D9D9" fill-opacity="1.000000" fill-rule="nonzero"/>
</svg>
