<svg width="20.856934" height="29.000000" viewBox="0 0 20.8569 29" fill="none" xmlns="http://www.w3.org/2000/svg" xmlns:xlink="http://www.w3.org/1999/xlink">
	<desc>
			Created with Pixso.
	</desc>
	<defs/>
	<path d="M20.8569 10.4472C20.8569 4.67739 16.188 0 10.4285 0C4.66895 0 0 4.67739 0 10.4472C0 15.8247 4.05554 20.2533 9.26978 20.8307L9.26978 25.6667L11.2698 25.6667L11.2698 20.861C16.6359 20.4319 20.8569 15.9334 20.8569 10.4472ZM18.8569 10.4472C18.8569 5.78196 15.0834 2 10.4285 2C5.77356 2 2 5.78196 2 10.4472C2 15.1125 5.77356 18.8945 10.4285 18.8945C15.0834 18.8945 18.8569 15.1125 18.8569 10.4472ZM15.7902 27L4.86511 27L4.86511 29L15.7902 29L15.7902 27Z" clip-rule="evenodd" fill="#000000" fill-opacity="1.000000" fill-rule="evenodd"/>
</svg>
