<svg width="24.255310" height="24.375000" viewBox="0 0 24.2553 24.375" fill="none" xmlns="http://www.w3.org/2000/svg" xmlns:xlink="http://www.w3.org/1999/xlink">
	<desc>
			Created with Pixso.
	</desc>
	<defs/>
	<path d="M9.7 0L14.55 0C17.12 0 19.59 1.05 21.41 2.92C23.23 4.8 24.25 7.34 24.25 10C24.25 12.65 23.23 15.19 21.41 17.07C19.59 18.94 17.12 20 14.55 20L14.55 24.37C8.48 21.87 0 18.12 0 10C0 7.34 1.02 4.8 2.84 2.92C4.66 1.05 7.12 0 9.7 0ZM12.12 17.5L14.55 17.5C16.48 17.5 18.33 16.7 19.69 15.3C21.06 13.89 21.82 11.98 21.82 10C21.82 8.01 21.06 6.1 19.69 4.69C18.33 3.29 16.48 2.5 14.55 2.5L9.7 2.5C7.77 2.5 5.92 3.29 4.55 4.69C3.19 6.1 2.42 8.01 2.42 10C2.42 14.51 5.41 17.45 12.12 20.6L12.12 17.5Z" fill="#6563FF" fill-opacity="1.000000" fill-rule="nonzero"/>
</svg>
