<svg width="115.021301" height="21.779358" viewBox="0 0 115.021 21.7794" fill="none" xmlns="http://www.w3.org/2000/svg" xmlns:xlink="http://www.w3.org/1999/xlink">
	<desc>
			Created with Pixso.
	</desc>
	<defs/>
	<mask id="mask5_81" mask-type="alpha" maskUnits="userSpaceOnUse" x="0.000000" y="0.000000" width="115.021301" height="21.779358">
		<path d="M115.02 9.85L115.02 8.05L112.5 8.05L112.5 5.26L112.42 5.29L110.06 5.93L110.01 5.94L110.01 8.05L106.29 8.05L106.29 6.88C106.29 6.33 106.43 5.91 106.7 5.63C106.97 5.35 107.36 5.21 107.85 5.21C108.21 5.21 108.57 5.29 108.94 5.43L109.04 5.47L109.04 3.58L108.99 3.57C108.65 3.46 108.18 3.4 107.6 3.4C106.86 3.4 106.2 3.54 105.62 3.82C105.04 4.1 104.58 4.5 104.26 5.01C103.94 5.52 103.78 6.11 103.78 6.76L103.78 8.05L102.03 8.05L102.03 9.85L103.78 9.85L103.78 17.41L106.29 17.41L106.29 9.85L110.01 9.85L110.01 14.65C110.01 16.63 111.07 17.63 113.14 17.63C113.48 17.63 113.84 17.6 114.21 17.53C114.58 17.46 114.83 17.38 114.98 17.31L115.02 17.29L115.02 15.48L114.91 15.54C114.78 15.62 114.61 15.69 114.41 15.74C114.21 15.79 114.04 15.81 113.91 15.81C113.43 15.81 113.07 15.69 112.84 15.46C112.62 15.23 112.5 14.83 112.5 14.26L112.5 9.85L115.02 9.85ZM96.42 15.81C95.51 15.81 94.79 15.54 94.29 15.01C93.78 14.48 93.52 13.73 93.52 12.77C93.52 11.77 93.78 11 94.29 10.46C94.79 9.92 95.5 9.65 96.4 9.65C97.27 9.65 97.97 9.91 98.46 10.42C98.96 10.94 99.21 11.71 99.21 12.71C99.21 13.73 98.98 14.51 98.51 15.03C98.04 15.55 97.34 15.81 96.42 15.81ZM96.53 7.83C94.8 7.83 93.41 8.28 92.43 9.17C91.45 10.06 90.95 11.3 90.95 12.84C90.95 14.3 91.43 15.48 92.39 16.34C93.35 17.2 94.66 17.63 96.28 17.63C97.97 17.63 99.32 17.17 100.3 16.27C101.29 15.37 101.79 14.14 101.79 12.64C101.79 11.15 101.32 9.97 100.4 9.11C99.47 8.26 98.17 7.83 96.53 7.83ZM86.9 7.83C85.72 7.83 84.74 8.1 83.99 8.63C83.24 9.16 82.86 9.86 82.86 10.7C82.86 11.14 82.94 11.53 83.1 11.86C83.26 12.19 83.52 12.48 83.85 12.73C84.18 12.97 84.7 13.23 85.38 13.49C85.95 13.7 86.38 13.87 86.65 14.01C86.91 14.15 87.1 14.28 87.21 14.42C87.31 14.55 87.36 14.73 87.36 14.95C87.36 15.58 86.83 15.88 85.74 15.88C85.33 15.88 84.87 15.81 84.37 15.66C83.86 15.51 83.39 15.3 82.96 15.03L82.86 14.96L82.86 17.11L82.89 17.12C83.25 17.27 83.7 17.39 84.23 17.49C84.75 17.58 85.23 17.63 85.65 17.63C86.93 17.63 87.96 17.36 88.72 16.83C89.48 16.29 89.86 15.58 89.86 14.71C89.86 14.08 89.65 13.53 89.25 13.1C88.84 12.67 88.14 12.27 87.16 11.92C86.37 11.64 85.87 11.41 85.67 11.23C85.47 11.06 85.37 10.82 85.37 10.51C85.37 10.24 85.49 10.02 85.75 9.84C86.01 9.67 86.37 9.58 86.82 9.58C87.24 9.58 87.66 9.64 88.09 9.75C88.51 9.87 88.89 10.02 89.2 10.21L89.3 10.27L89.3 8.24L89.26 8.22C88.98 8.11 88.6 8.02 88.13 7.94C87.68 7.87 87.26 7.83 86.9 7.83ZM76.31 15.81C75.4 15.81 74.68 15.54 74.17 15.01C73.66 14.48 73.41 13.73 73.41 12.77C73.41 11.77 73.66 11 74.17 10.46C74.68 9.92 75.39 9.65 76.29 9.65C77.16 9.65 77.85 9.91 78.35 10.42C78.85 10.94 79.1 11.71 79.1 12.71C79.1 13.73 78.86 14.51 78.39 15.03C77.93 15.55 77.23 15.81 76.31 15.81ZM76.42 7.83C74.68 7.83 73.3 8.28 72.32 9.17C71.33 10.06 70.83 11.3 70.83 12.84C70.83 14.3 71.32 15.48 72.28 16.34C73.24 17.2 74.55 17.63 76.17 17.63C77.85 17.63 79.21 17.17 80.19 16.27C81.18 15.37 81.67 14.14 81.67 12.64C81.67 11.15 81.21 9.97 80.28 9.11C79.36 8.26 78.06 7.83 76.42 7.83ZM67.02 9.67L67.02 8.05L64.54 8.05L64.54 17.41L67.02 17.41L67.02 12.62C67.02 11.81 67.23 11.14 67.64 10.64C68.05 10.14 68.59 9.88 69.25 9.88C69.47 9.88 69.72 9.92 69.99 9.98C70.26 10.05 70.45 10.11 70.57 10.19L70.67 10.26L70.67 8.04L70.63 8.02C70.4 7.94 70.08 7.89 69.66 7.89C69.04 7.89 68.48 8.07 68 8.42C67.58 8.73 67.28 9.15 67.05 9.67L67.02 9.67ZM60.1 7.83C58.96 7.83 57.95 8.04 57.08 8.47C56.22 8.9 55.55 9.51 55.1 10.29C54.64 11.06 54.41 11.96 54.41 12.97C54.41 13.86 54.63 14.67 55.08 15.38C55.52 16.1 56.14 16.66 56.93 17.05C57.72 17.43 58.63 17.63 59.64 17.63C60.82 17.63 61.83 17.42 62.64 17.01L62.67 16.99L62.67 14.98L62.56 15.05C62.2 15.28 61.79 15.47 61.35 15.61C60.91 15.74 60.51 15.81 60.16 15.81C59.19 15.81 58.41 15.54 57.84 15.01C57.27 14.47 56.98 13.73 56.98 12.78C56.98 11.84 57.28 11.07 57.88 10.5C58.47 9.94 59.25 9.65 60.2 9.65C61.02 9.65 61.81 9.89 62.56 10.38L62.67 10.44L62.67 8.32L62.63 8.3C62.35 8.16 61.97 8.05 61.49 7.96C61.01 7.87 60.54 7.83 60.1 7.83ZM52.7 8.05L50.22 8.05L50.22 17.41L52.7 17.41L52.7 8.05ZM51.49 4.07C51.08 4.07 50.72 4.19 50.43 4.44C50.14 4.68 49.99 4.99 49.99 5.35C49.99 5.71 50.14 6.02 50.43 6.25C50.72 6.49 51.07 6.61 51.49 6.61C51.9 6.61 52.26 6.49 52.55 6.25C52.85 6.02 53 5.71 53 5.35C53 5 52.85 4.7 52.57 4.45C52.28 4.2 51.92 4.07 51.49 4.07ZM45.3 7.36L45.3 17.41L47.83 17.41L47.83 4.36L44.33 4.36L39.87 14.05L35.55 4.36L31.91 4.36L31.91 17.41L34.29 17.41L34.29 7.36L34.37 7.36L38.93 17.41L40.73 17.41L45.22 7.36L45.3 7.36Z" fill="#F40009" fill-opacity="1.000000" fill-rule="nonzero"/>
		<path d="M115.02 9.85L115.02 8.05L112.5 8.05L112.5 5.26L112.42 5.29L110.06 5.93L110.01 5.94L110.01 8.05L106.29 8.05L106.29 6.88C106.29 6.33 106.43 5.91 106.7 5.63C106.97 5.35 107.36 5.21 107.85 5.21C108.21 5.21 108.57 5.29 108.94 5.43L109.04 5.47L109.04 3.58L108.99 3.57C108.65 3.46 108.18 3.4 107.6 3.4C106.86 3.4 106.2 3.54 105.62 3.82C105.04 4.1 104.58 4.5 104.26 5.01C103.94 5.52 103.78 6.11 103.78 6.76L103.78 8.05L102.03 8.05L102.03 9.85L103.78 9.85L103.78 17.41L106.29 17.41L106.29 9.85L110.01 9.85L110.01 14.65C110.01 16.63 111.07 17.63 113.14 17.63C113.48 17.63 113.84 17.6 114.21 17.53C114.58 17.46 114.83 17.38 114.98 17.31L115.02 17.29L115.02 15.48L114.91 15.54C114.78 15.62 114.61 15.69 114.41 15.74C114.21 15.79 114.04 15.81 113.91 15.81C113.43 15.81 113.07 15.69 112.84 15.46C112.62 15.23 112.5 14.83 112.5 14.26L112.5 9.85L115.02 9.85ZM96.42 15.81C95.51 15.81 94.79 15.54 94.29 15.01C93.78 14.48 93.52 13.73 93.52 12.77C93.52 11.77 93.78 11 94.29 10.46C94.79 9.92 95.5 9.65 96.4 9.65C97.27 9.65 97.97 9.91 98.46 10.42C98.96 10.94 99.21 11.71 99.21 12.71C99.21 13.73 98.98 14.51 98.51 15.03C98.04 15.55 97.34 15.81 96.42 15.81ZM96.53 7.83C94.8 7.83 93.41 8.28 92.43 9.17C91.45 10.06 90.95 11.3 90.95 12.84C90.95 14.3 91.43 15.48 92.39 16.34C93.35 17.2 94.66 17.63 96.28 17.63C97.97 17.63 99.32 17.17 100.3 16.27C101.29 15.37 101.79 14.14 101.79 12.64C101.79 11.15 101.32 9.97 100.4 9.11C99.47 8.26 98.17 7.83 96.53 7.83ZM86.9 7.83C85.72 7.83 84.74 8.1 83.99 8.63C83.24 9.16 82.86 9.86 82.86 10.7C82.86 11.14 82.94 11.53 83.1 11.86C83.26 12.19 83.52 12.48 83.85 12.73C84.18 12.97 84.7 13.23 85.38 13.49C85.95 13.7 86.38 13.87 86.65 14.01C86.91 14.15 87.1 14.28 87.21 14.42C87.31 14.55 87.36 14.73 87.36 14.95C87.36 15.58 86.83 15.88 85.74 15.88C85.33 15.88 84.87 15.81 84.37 15.66C83.86 15.51 83.39 15.3 82.96 15.03L82.86 14.96L82.86 17.11L82.89 17.12C83.25 17.27 83.7 17.39 84.23 17.49C84.75 17.58 85.23 17.63 85.65 17.63C86.93 17.63 87.96 17.36 88.72 16.83C89.48 16.29 89.86 15.58 89.86 14.71C89.86 14.08 89.65 13.53 89.25 13.1C88.84 12.67 88.14 12.27 87.16 11.92C86.37 11.64 85.87 11.41 85.67 11.23C85.47 11.06 85.37 10.82 85.37 10.51C85.37 10.24 85.49 10.02 85.75 9.84C86.01 9.67 86.37 9.58 86.82 9.58C87.24 9.58 87.66 9.64 88.09 9.75C88.51 9.87 88.89 10.02 89.2 10.21L89.3 10.27L89.3 8.24L89.26 8.22C88.98 8.11 88.6 8.02 88.13 7.94C87.68 7.87 87.26 7.83 86.9 7.83ZM76.31 15.81C75.4 15.81 74.68 15.54 74.17 15.01C73.66 14.48 73.41 13.73 73.41 12.77C73.41 11.77 73.66 11 74.17 10.46C74.68 9.92 75.39 9.65 76.29 9.65C77.16 9.65 77.85 9.91 78.35 10.42C78.85 10.94 79.1 11.71 79.1 12.71C79.1 13.73 78.86 14.51 78.39 15.03C77.93 15.55 77.23 15.81 76.31 15.81ZM76.42 7.83C74.68 7.83 73.3 8.28 72.32 9.17C71.33 10.06 70.83 11.3 70.83 12.84C70.83 14.3 71.32 15.48 72.28 16.34C73.24 17.2 74.55 17.63 76.17 17.63C77.85 17.63 79.21 17.17 80.19 16.27C81.18 15.37 81.67 14.14 81.67 12.64C81.67 11.15 81.21 9.97 80.28 9.11C79.36 8.26 78.06 7.83 76.42 7.83ZM67.02 9.67L67.02 8.05L64.54 8.05L64.54 17.41L67.02 17.41L67.02 12.62C67.02 11.81 67.23 11.14 67.64 10.64C68.05 10.14 68.59 9.88 69.25 9.88C69.47 9.88 69.72 9.92 69.99 9.98C70.26 10.05 70.45 10.11 70.57 10.19L70.67 10.26L70.67 8.04L70.63 8.02C70.4 7.94 70.08 7.89 69.66 7.89C69.04 7.89 68.48 8.07 68 8.42C67.58 8.73 67.28 9.15 67.05 9.67L67.02 9.67ZM60.1 7.83C58.96 7.83 57.95 8.04 57.08 8.47C56.22 8.9 55.55 9.51 55.1 10.29C54.64 11.06 54.41 11.96 54.41 12.97C54.41 13.86 54.63 14.67 55.08 15.38C55.52 16.1 56.14 16.66 56.93 17.05C57.72 17.43 58.63 17.63 59.64 17.63C60.82 17.63 61.83 17.42 62.64 17.01L62.67 16.99L62.67 14.98L62.56 15.05C62.2 15.28 61.79 15.47 61.35 15.61C60.91 15.74 60.51 15.81 60.16 15.81C59.19 15.81 58.41 15.54 57.84 15.01C57.27 14.47 56.98 13.73 56.98 12.78C56.98 11.84 57.28 11.07 57.88 10.5C58.47 9.94 59.25 9.65 60.2 9.65C61.02 9.65 61.81 9.89 62.56 10.38L62.67 10.44L62.67 8.32L62.63 8.3C62.35 8.16 61.97 8.05 61.49 7.96C61.01 7.87 60.54 7.83 60.1 7.83ZM52.7 8.05L50.22 8.05L50.22 17.41L52.7 17.41L52.7 8.05ZM51.49 4.07C51.08 4.07 50.72 4.19 50.43 4.44C50.14 4.68 49.99 4.99 49.99 5.35C49.99 5.71 50.14 6.02 50.43 6.25C50.72 6.49 51.07 6.61 51.49 6.61C51.9 6.61 52.26 6.49 52.55 6.25C52.85 6.02 53 5.71 53 5.35C53 5 52.85 4.7 52.57 4.45C52.28 4.2 51.92 4.07 51.49 4.07ZM45.3 7.36L45.3 17.41L47.83 17.41L47.83 4.36L44.33 4.36L39.87 14.05L35.55 4.36L31.91 4.36L31.91 17.41L34.29 17.41L34.29 7.36L34.37 7.36L38.93 17.41L40.73 17.41L45.22 7.36L45.3 7.36Z" fill="#434343" fill-opacity="1.000000" fill-rule="nonzero"/>
		<path d="M11.66 10.34L0 10.34L0 0L11.66 0L11.66 10.34Z" fill="#F40009" fill-opacity="1.000000" fill-rule="nonzero"/>
		<path d="M11.66 10.34L0 10.34L0 0L11.66 0L11.66 10.34Z" fill="#434343" fill-opacity="1.000000" fill-rule="nonzero"/>
		<path d="M24.55 10.34L12.88 10.34L12.88 0L24.55 0L24.55 10.34Z" fill="#F40009" fill-opacity="1.000000" fill-rule="nonzero"/>
		<path d="M24.55 10.34L12.88 10.34L12.88 0L24.55 0L24.55 10.34Z" fill="#434343" fill-opacity="1.000000" fill-rule="nonzero"/>
		<path d="M11.66 21.77L0 21.77L0 11.43L11.66 11.43L11.66 21.77Z" fill="#F40009" fill-opacity="1.000000" fill-rule="nonzero"/>
		<path d="M11.66 21.77L0 21.77L0 11.43L11.66 11.43L11.66 21.77Z" fill="#434343" fill-opacity="1.000000" fill-rule="nonzero"/>
		<path d="M24.55 21.77L12.88 21.77L12.88 11.43L24.55 11.43L24.55 21.77Z" fill="#F40009" fill-opacity="1.000000" fill-rule="nonzero"/>
		<path d="M24.55 21.77L12.88 21.77L12.88 11.43L24.55 11.43L24.55 21.77Z" fill="#434343" fill-opacity="1.000000" fill-rule="nonzero"/>
	</mask>
	<g mask="url(#mask5_81)">
		<rect x="-19.453491" y="-27.245361" width="137.000000" height="85.000000" fill="#F40009" fill-opacity="1.000000"/>
		<rect x="-19.453491" y="-27.245361" width="137.000000" height="85.000000" fill="#434343" fill-opacity="1.000000"/>
	</g>
</svg>
