<svg width="29.106323" height="30.000000" viewBox="0 0 29.1063 30" fill="none" xmlns="http://www.w3.org/2000/svg" xmlns:xlink="http://www.w3.org/1999/xlink">
	<desc>
			Created with Pixso.
	</desc>
	<defs/>
	<path d="M14.47 0L14.63 0C17.75 0 20.2 0 22.11 0.26C24.07 0.53 25.61 1.1 26.82 2.34C28.03 3.59 28.58 5.18 28.84 7.2C29.1 9.17 29.1 11.69 29.1 14.92L29.1 15.07C29.1 18.3 29.1 20.82 28.84 22.79C28.58 24.81 28.03 26.4 26.82 27.65C25.61 28.89 24.07 29.46 22.11 29.73C20.2 30 17.75 30 14.63 30L14.47 30C11.35 30 8.9 30 6.98 29.73C5.03 29.46 3.49 28.89 2.27 27.65C1.06 26.4 0.51 24.81 0.25 22.79C0 20.82 0 18.3 0 15.07L0 14.92C0 11.69 0 9.17 0.25 7.2C0.51 5.18 1.06 3.59 2.27 2.34C3.49 1.1 5.03 0.53 6.99 0.26C8.9 0 11.35 0 14.47 0ZM7.26 2.33C5.53 2.57 4.48 3.03 3.71 3.83C2.94 4.62 2.5 5.7 2.26 7.48C2.23 7.76 2.2 8.06 2.17 8.37L7.22 8.37L11.09 2.1C9.56 2.13 8.31 2.19 7.26 2.33ZM13.47 2.09C13.45 2.16 13.42 2.23 13.37 2.3L9.63 8.37L16.02 8.37L19.85 2.16C18.42 2.09 16.68 2.09 14.55 2.09L13.47 2.09ZM22.13 2.38L18.43 8.37L26.93 8.37C26.9 8.06 26.87 7.76 26.83 7.48C26.6 5.7 26.16 4.62 25.39 3.82C24.66 3.07 23.69 2.63 22.13 2.38ZM27.03 10.46L7.79 10.46C7.78 10.46 7.77 10.46 7.76 10.46L2.06 10.46C2.03 11.97 2.02 13.48 2.03 15C2.03 18.31 2.03 20.7 2.26 22.51C2.5 24.3 2.94 25.37 3.71 26.17C4.48 26.96 5.53 27.42 7.26 27.66C9.02 27.9 11.33 27.9 14.55 27.9C17.77 27.9 20.08 27.9 21.84 27.66C23.57 27.42 24.62 26.96 25.39 26.16C26.16 25.37 26.6 24.3 26.83 22.51C27.07 20.7 27.07 18.31 27.07 15C27.07 13.24 27.07 11.75 27.03 10.46Z" fill="#6563FF" fill-opacity="1.000000" fill-rule="evenodd"/>
</svg>
