<svg width="22.009644" height="22.104877" viewBox="0 0 22.0096 22.1049" fill="none" xmlns="http://www.w3.org/2000/svg" xmlns:xlink="http://www.w3.org/1999/xlink">
	<desc>
			Created with Pixso.
	</desc>
	<defs/>
	<path d="M17.9575 3.08897C13.8315 -1.01175 7.1626 -1.0322 3.06201 3.04327C-1.03857 7.11875 -1.01794 13.7469 3.10803 17.8476C6.95337 21.6694 13.0077 21.9471 17.1329 18.6679L20.5911 22.1049L22.0096 20.695L18.5736 17.2799C22.0924 13.1779 21.8824 6.98988 17.9575 3.08897ZM16.5389 4.49886C13.1964 1.17679 7.79773 1.15632 4.48059 4.45314C1.16345 7.74995 1.18408 13.1156 4.52661 16.4377C7.86914 19.7598 13.2678 19.7802 16.585 16.4834C19.9021 13.1866 19.8815 7.82093 16.5389 4.49886Z" clip-rule="evenodd" fill="#000000" fill-opacity="1.000000" fill-rule="evenodd"/>
</svg>
