<svg width="110.524414" height="17.004700" viewBox="0 0 110.524 17.0047" fill="none" xmlns="http://www.w3.org/2000/svg" xmlns:xlink="http://www.w3.org/1999/xlink">
	<desc>
			Created with Pixso.
	</desc>
	<defs/>
	<path d="M109.94 14.82C109.94 14.68 109.87 14.53 109.73 14.46C109.59 14.39 109.43 14.38 109.27 14.38L108.45 14.38L108.45 16.04L108.68 16.04L108.68 15.28L109.1 15.28L109.64 16.04L109.91 16.04L109.34 15.28C109.68 15.27 109.94 15.15 109.94 14.82ZM109.03 15.12L108.68 15.12L108.68 14.53L109.21 14.53C109.45 14.53 109.71 14.56 109.71 14.82C109.71 15.16 109.29 15.12 109.03 15.12ZM99.18 6.79L102.63 3.55C102.83 3.31 102.93 3.14 102.93 3C102.93 2.76 102.7 2.66 101.96 2.66L101.09 2.66L101.09 0.62L110.52 0.62L110.52 2.66L109.28 2.66C107.85 2.66 107.59 2.85 105.59 5.07L100.13 10.26L100.13 13.43C100.13 14.24 100.59 14.52 101.92 14.52L103.99 14.52L103.99 16.5L90.78 16.5L90.78 14.52L92.84 14.52C94.17 14.52 94.64 14.24 94.64 13.43L94.64 10.26L88.21 4C87.15 2.9 87.29 2.66 84.33 2.66L84.33 0.62L96.27 0.62L96.27 2.66L95.42 2.66C94.56 2.66 94.19 2.81 94.19 3.09C94.19 3.33 94.46 3.52 94.62 3.71L97.88 6.83C98.26 7.19 98.74 7.23 99.18 6.79ZM19.06 0.62L21.94 0.62L21.94 6.33L19.28 6.33C19.05 5.19 18.24 4.74 17.5 4.14C16.16 3.06 13.27 2.16 10.83 2.16C7.69 2.16 5.04 3.02 5.04 4.28C5.04 7.78 23.01 5 23.01 11.62C23.01 15.07 19.16 17 12.25 17C9.85 17 6.23 16.35 4.1 15.35C3.43 15.01 3.14 15.67 3.02 16.5L0.06 16.5L0.06 10.59L2.74 10.59C3.33 12.09 4.14 12.4 4.88 13C6.18 14.05 9.26 14.81 12.09 14.79C16.35 14.75 17.82 13.93 17.82 12.74C17.82 11.55 16.37 11.26 11.7 10.62L7.73 10.05C3.25 9.45 0 8.57 0 5.43C0 2.16 4.12 0.11 10.64 0.11C13.38 0.11 15.68 0.44 17.89 1.54C18.5 1.89 19.07 1.93 19.06 0.62ZM75.27 10.18L75.33 3.83C75.33 3 74.84 2.71 73.43 2.71L71.78 2.71L71.78 0.74L82.3 0.74L82.3 2.71L80.93 2.71C79.52 2.71 79.03 3 79.03 3.83L79.03 16.62L74.91 16.59L61.57 5.48L61.57 13.55C61.57 14.36 62.07 14.67 63.47 14.67L65.3 14.67L65.3 16.62L54.38 16.62L54.38 14.67L56.19 14.67C57.6 14.67 58.09 14.36 58.09 13.55L58.09 3.83C58.09 3 57.6 2.71 56.19 2.71L54.38 2.71L54.38 0.74L63.82 0.74L75.27 10.18ZM40.04 0C31.65 0 26.4 3.26 26.4 8.5C26.4 13.64 31.58 16.88 39.78 16.88C48.49 16.88 53.56 13.69 53.56 8.24C53.56 3.33 48.09 0 40.04 0ZM39.84 14.81C35.2 14.81 32.54 12.45 32.54 8.38C32.54 4.4 35.32 2.04 40.08 2.04C44.64 2.04 47.31 4.45 47.31 8.55C47.31 12.55 44.6 14.81 39.84 14.81Z" fill="#F40009" fill-opacity="1.000000" fill-rule="evenodd"/>
	<path d="M109.94 14.82C109.94 14.68 109.87 14.53 109.73 14.46C109.59 14.39 109.43 14.38 109.27 14.38L108.45 14.38L108.45 16.04L108.68 16.04L108.68 15.28L109.1 15.28L109.64 16.04L109.91 16.04L109.34 15.28C109.68 15.27 109.94 15.15 109.94 14.82ZM109.03 15.12L108.68 15.12L108.68 14.53L109.21 14.53C109.45 14.53 109.71 14.56 109.71 14.82C109.71 15.16 109.29 15.12 109.03 15.12ZM99.18 6.79L102.63 3.55C102.83 3.31 102.93 3.14 102.93 3C102.93 2.76 102.7 2.66 101.96 2.66L101.09 2.66L101.09 0.62L110.52 0.62L110.52 2.66L109.28 2.66C107.85 2.66 107.59 2.85 105.59 5.07L100.13 10.26L100.13 13.43C100.13 14.24 100.59 14.52 101.92 14.52L103.99 14.52L103.99 16.5L90.78 16.5L90.78 14.52L92.84 14.52C94.17 14.52 94.64 14.24 94.64 13.43L94.64 10.26L88.21 4C87.15 2.9 87.29 2.66 84.33 2.66L84.33 0.62L96.27 0.62L96.27 2.66L95.42 2.66C94.56 2.66 94.19 2.81 94.19 3.09C94.19 3.33 94.46 3.52 94.62 3.71L97.88 6.83C98.26 7.19 98.74 7.23 99.18 6.79ZM19.06 0.62L21.94 0.62L21.94 6.33L19.28 6.33C19.05 5.19 18.24 4.74 17.5 4.14C16.16 3.06 13.27 2.16 10.83 2.16C7.69 2.16 5.04 3.02 5.04 4.28C5.04 7.78 23.01 5 23.01 11.62C23.01 15.07 19.16 17 12.25 17C9.85 17 6.23 16.35 4.1 15.35C3.43 15.01 3.14 15.67 3.02 16.5L0.06 16.5L0.06 10.59L2.74 10.59C3.33 12.09 4.14 12.4 4.88 13C6.18 14.05 9.26 14.81 12.09 14.79C16.35 14.75 17.82 13.93 17.82 12.74C17.82 11.55 16.37 11.26 11.7 10.62L7.73 10.05C3.25 9.45 0 8.57 0 5.43C0 2.16 4.12 0.11 10.64 0.11C13.38 0.11 15.68 0.44 17.89 1.54C18.5 1.89 19.07 1.93 19.06 0.62ZM75.27 10.18L75.33 3.83C75.33 3 74.84 2.71 73.43 2.71L71.78 2.71L71.78 0.74L82.3 0.74L82.3 2.71L80.93 2.71C79.52 2.71 79.03 3 79.03 3.83L79.03 16.62L74.91 16.59L61.57 5.48L61.57 13.55C61.57 14.36 62.07 14.67 63.47 14.67L65.3 14.67L65.3 16.62L54.38 16.62L54.38 14.67L56.19 14.67C57.6 14.67 58.09 14.36 58.09 13.55L58.09 3.83C58.09 3 57.6 2.71 56.19 2.71L54.38 2.71L54.38 0.74L63.82 0.74L75.27 10.18ZM40.04 0C31.65 0 26.4 3.26 26.4 8.5C26.4 13.64 31.58 16.88 39.78 16.88C48.49 16.88 53.56 13.69 53.56 8.24C53.56 3.33 48.09 0 40.04 0ZM39.84 14.81C35.2 14.81 32.54 12.45 32.54 8.38C32.54 4.4 35.32 2.04 40.08 2.04C44.64 2.04 47.31 4.45 47.31 8.55C47.31 12.55 44.6 14.81 39.84 14.81Z" fill="#434343" fill-opacity="1.000000" fill-rule="evenodd"/>
</svg>
