<svg width="60.000000" height="10.408203" viewBox="0 0 60 10.4082" fill="none" xmlns="http://www.w3.org/2000/svg" xmlns:xlink="http://www.w3.org/1999/xlink">
	<desc>
			Created with Pixso.
	</desc>
	<defs/>
	<path id="Vector" d="M59.68 9.07C59.68 8.98 59.64 8.89 59.57 8.85C59.49 8.8 59.4 8.8 59.32 8.8L58.87 8.8L58.87 9.82L58.99 9.82L58.99 9.35L59.22 9.35L59.52 9.82L59.67 9.82L59.36 9.35C59.54 9.34 59.68 9.27 59.68 9.07ZM59.19 9.25L58.99 9.25L58.99 8.89L59.29 8.89C59.41 8.89 59.55 8.91 59.55 9.07C59.55 9.27 59.33 9.25 59.19 9.25ZM53.84 4.15L55.71 2.17C55.82 2.02 55.87 1.92 55.87 1.83C55.87 1.69 55.75 1.63 55.35 1.63L54.88 1.63L54.88 0.38L60 0.38L60 1.63L59.32 1.63C58.55 1.63 58.4 1.75 57.32 3.1L54.35 6.28L54.35 8.22C54.35 8.71 54.61 8.89 55.33 8.89L56.45 8.89L56.45 10.1L49.28 10.1L49.28 8.89L50.4 8.89C51.12 8.89 51.37 8.71 51.37 8.22L51.37 6.28L47.88 2.44C47.31 1.77 47.39 1.63 45.78 1.63L45.78 0.38L52.26 0.38L52.26 1.63L51.8 1.63C51.33 1.63 51.13 1.72 51.13 1.89C51.13 2.04 51.28 2.15 51.37 2.27L53.13 4.18C53.34 4.4 53.6 4.43 53.84 4.15ZM10.35 0.37L11.91 0.37L11.91 3.87L10.47 3.87C10.34 3.17 9.9 2.9 9.5 2.53C8.77 1.87 7.2 1.32 5.88 1.32C4.17 1.32 2.73 1.85 2.73 2.62C2.73 4.76 12.49 3.06 12.49 7.11C12.49 9.22 10.4 10.4 6.65 10.4C5.35 10.4 3.38 10 2.22 9.39C1.86 9.18 1.7 9.59 1.64 10.1L0.03 10.1L0.03 6.48L1.48 6.48C1.8 7.4 2.24 7.59 2.65 7.95C3.35 8.6 5.03 9.06 6.56 9.05C8.88 9.03 9.67 8.52 9.67 7.79C9.67 7.07 8.88 6.89 6.35 6.5L4.19 6.15C1.76 5.78 0 5.24 0 3.32C0 1.32 2.23 0.07 5.77 0.07C7.26 0.07 8.51 0.27 9.71 0.94C10.04 1.15 10.35 1.18 10.35 0.37ZM40.86 6.23L40.89 2.34C40.89 1.83 40.63 1.66 39.86 1.66L38.96 1.66L38.96 0.45L44.68 0.45L44.68 1.66L43.93 1.66C43.17 1.66 42.9 1.83 42.9 2.34L42.9 10.17L40.66 10.15L33.42 3.35L33.42 8.29C33.42 8.79 33.69 8.98 34.46 8.98L35.45 8.98L35.45 10.17L29.52 10.17L29.52 8.98L30.5 8.98C31.26 8.98 31.53 8.79 31.53 8.29L31.53 2.34C31.53 1.83 31.26 1.66 30.5 1.66L29.52 1.66L29.52 0.45L34.65 0.45L40.86 6.23ZM21.73 0C17.18 0 14.33 1.99 14.33 5.2C14.33 8.35 17.14 10.33 21.59 10.33C26.32 10.33 29.07 8.38 29.07 5.04C29.07 2.04 26.1 0 21.73 0ZM21.63 9.06C19.11 9.06 17.66 7.62 17.66 5.13C17.66 2.69 19.17 1.25 21.75 1.25C24.23 1.25 25.68 2.72 25.68 5.23C25.68 7.68 24.21 9.06 21.63 9.06Z" fill="#000000" fill-opacity="1.000000" fill-rule="evenodd"/>
</svg>
