<svg width="30.084351" height="22.000000" viewBox="0 0 30.0844 22" fill="none" xmlns="http://www.w3.org/2000/svg" xmlns:xlink="http://www.w3.org/1999/xlink">
	<desc>
			Created with Pixso.
	</desc>
	<defs/>
	<path d="M30.08 2.6C28.95 3.05 27.76 3.34 26.53 3.47C27.81 2.79 28.79 1.7 29.25 0.4C28.04 1.05 26.71 1.5 25.33 1.75C24.2 0.67 22.6 0 20.82 0C17.41 0 14.65 2.48 14.65 5.55C14.65 5.98 14.71 6.41 14.81 6.81C9.68 6.58 5.13 4.37 2.09 1.01C1.56 1.83 1.25 2.79 1.25 3.8C1.25 5.73 2.34 7.43 4 8.43C3.02 8.4 2.06 8.16 1.2 7.73C1.2 7.76 1.2 7.78 1.2 7.8C1.2 10.49 3.33 12.74 6.15 13.25C5.25 13.47 4.29 13.5 3.37 13.34C4.15 15.55 6.43 17.15 9.13 17.2C7.02 18.69 4.36 19.58 1.47 19.58C0.97 19.58 0.48 19.55 0 19.5C2.73 21.08 5.97 22 9.46 22C20.81 22 27.02 13.53 27.02 6.19C27.02 5.95 27.01 5.71 27 5.47C28.21 4.69 29.25 3.71 30.08 2.6Z" fill="#D9D9D9" fill-opacity="1.000000" fill-rule="nonzero"/>
</svg>
