<svg width="14.000000" height="19.465942" viewBox="0 0 14 19.4659" fill="none" xmlns="http://www.w3.org/2000/svg" xmlns:xlink="http://www.w3.org/1999/xlink">
	<desc>
			Created with Pixso.
	</desc>
	<defs/>
	<path id="Локация" d="M14 7.01257C14 3.13965 10.866 0 7 0C3.134 0 0 3.13965 0 7.01257C0 10.6222 2.72226 13.5947 6.2222 13.9824L6.2222 17.2285L7.7222 17.2285L7.7222 13.9883C11.2489 13.6262 14 10.6412 14 7.01257ZM12.5 7.01257C12.5 3.96802 10.0376 1.5 7 1.5C3.96243 1.5 1.5 3.96802 1.5 7.01257C1.5 10.0571 3.96243 12.5251 7 12.5251C10.0376 12.5251 12.5 10.0571 12.5 7.01257ZM3.26559 17.9659L10.5989 17.9659L10.5989 19.4659L3.26559 19.4659L3.26559 17.9659Z" clip-rule="evenodd" fill="#939393" fill-opacity="1.000000" fill-rule="evenodd"/>
</svg>
