<svg width="24.255371" height="25.000000" viewBox="0 0 24.2554 25" fill="none" xmlns="http://www.w3.org/2000/svg" xmlns:xlink="http://www.w3.org/1999/xlink">
	<desc>
			Created with Pixso.
	</desc>
	<defs/>
	<path d="M23.04 0L1.21 0C0.89 0 0.58 0.13 0.35 0.36C0.12 0.6 0 0.91 0 1.25L0 23.75C0 24.08 0.12 24.39 0.35 24.63C0.58 24.86 0.89 25 1.21 25L23.04 25C23.36 25 23.67 24.86 23.9 24.63C24.12 24.39 24.25 24.08 24.25 23.75L24.25 1.25C24.25 0.91 24.12 0.6 23.9 0.36C23.67 0.13 23.36 0 23.04 0ZM7.27 22.5L2.42 22.5L2.42 2.5L7.27 2.5L7.27 22.5ZM21.82 22.5L9.7 22.5L9.7 13.75L21.82 13.75L21.82 22.5ZM21.82 11.25L9.7 11.25L9.7 2.5L21.82 2.5L21.82 11.25Z" fill="#6563FF" fill-opacity="1.000000" fill-rule="nonzero"/>
</svg>
